<?xml version="1.0" encoding="utf-8"?>
<!-- Generator: Adobe Illustrator 25.2.0, SVG Export Plug-In . SVG Version: 6.00 Build 0)  -->
<svg version="1.1" id="Layer_1" xmlns="http://www.w3.org/2000/svg" xmlns:xlink="http://www.w3.org/1999/xlink" x="0px" y="0px"
	 viewBox="0 0 512 512" style="enable-background:new 0 0 512 512;" xml:space="preserve">
<style type="text/css">
	.st0{fill:#1263B5;}
</style>
<g id="outline">
	<path class="st0" d="M91.6,60.7l2.2,1.5c8.7,5.8,15.3,14.4,18.6,24.4c1.4,4.2,5.9,6.5,10.1,5.1c2.4-0.8,4.3-2.7,5.1-5.1
		c3.3-10,9.9-18.6,18.6-24.4l2.2-1.5c3.7-2.5,4.7-7.4,2.2-11.1c-0.6-0.9-1.3-1.6-2.2-2.2l-2.2-1.5c-8.7-5.8-15.3-14.4-18.6-24.4
		c-1.4-4.2-5.9-6.5-10.1-5.1c-2.4,0.8-4.3,2.7-5.1,5.1c-3.3,10-9.9,18.6-18.6,24.4l-2.2,1.5c-3.7,2.5-4.7,7.4-2.2,11.1
		C89.9,59.3,90.7,60.1,91.6,60.7z M120,41.9c3,4.5,6.6,8.5,10.6,12.1c-4,3.6-7.6,7.6-10.6,12.1c-3-4.5-6.6-8.5-10.6-12.1
		C113.4,50.4,117,46.4,120,41.9z"/>
	<path class="st0" d="M43.6,112.7l2.2,1.5c8.7,5.8,15.3,14.4,18.6,24.4c1.4,4.2,5.9,6.5,10.1,5.1c2.4-0.8,4.3-2.7,5.1-5.1
		c3.3-10,9.9-18.6,18.6-24.4l2.2-1.5c3.7-2.5,4.7-7.4,2.2-11.1c-0.6-0.9-1.3-1.6-2.2-2.2l-2.2-1.5C89.5,92,82.9,83.4,79.6,73.5
		c-1.4-4.2-5.9-6.5-10.1-5.1c-2.4,0.8-4.3,2.7-5.1,5.1c-3.3,10-9.9,18.6-18.6,24.4l-2.2,1.5c-3.7,2.5-4.7,7.4-2.2,11.1
		C41.9,111.3,42.7,112.1,43.6,112.7z M72,93.9c3,4.5,6.6,8.5,10.6,12.1c-4,3.6-7.6,7.6-10.6,12.1c-3-4.5-6.6-8.5-10.6-12.1
		C65.4,102.4,69,98.4,72,93.9z"/>
	<path class="st0" d="M88,320h-8c-4.4,0-8,3.6-8,8s3.6,8,8,8h8c4.4,0,8-3.6,8-8S92.4,320,88,320z"/>
	<path class="st0" d="M88,384h-8c-4.4,0-8,3.6-8,8s3.6,8,8,8h8c4.4,0,8-3.6,8-8S92.4,384,88,384z"/>
	<path class="st0" d="M88,448h-8c-4.4,0-8,3.6-8,8s3.6,8,8,8h8c4.4,0,8-3.6,8-8S92.4,448,88,448z"/>
	<path class="st0" d="M480,392c0-13.7-2.7-27.3-8-40v-56c0-4.4-3.6-8-8-8h-24v-33.4c12.5-4.4,19-18.1,14.6-30.6
		c-3.4-9.6-12.5-16-22.6-16v-94.7l7.6-22.8c0.5-1.4,0.5-3,0.2-4.5l-8-32c-0.9-3.6-4.1-6.1-7.8-6.1h-32c-3.7,0-6.9,2.5-7.8,6.1l-8,32
		c-0.4,1.5-0.3,3,0.2,4.5l7.6,22.8V208c-13.3,0-24,10.8-24,24c0,10.2,6.4,19.2,16,22.6V288h-32v-66.1c25.4-17.7,31.6-52.6,14-78
		c-17.7-25.4-52.6-31.6-78-14c-15,10.5-24,27.6-24,46c-0.1,17.5,8.1,33.9,22,44.5c0.7,0.5,1.3,1,2,1.5V288h-40V146.7l14-18.7
		c6.5-8.7,10-19.2,10-30c0.1-19-10.7-36.3-27.7-44.8l-8.8-4.4c-4-2-8.8-0.4-10.7,3.6c-0.6,1.1-0.8,2.3-0.8,3.6v30.1c0,4.4-3.6,8-8,8
		s-8-3.6-8-8V56c0-4.4-3.6-8-8-8c-1.2,0-2.5,0.3-3.6,0.8l-8.8,4.4C162.7,61.7,151.9,79,152,98c0,10.8,3.5,21.4,10,30l14,18.7V168
		h-16c0-4.4-3.6-8-8-8h-48c-3.6,0-6.7,2.4-7.7,5.8l-22.4-5.6l0,0c-0.6-0.2-1.3-0.2-1.9-0.2H40c-4.4,0-8,3.6-8,8v48c0,4.4,3.6,8,8,8
		c0,0,31.7,0,32-0.1c0.1,0,24.3-5.8,24.3-5.8c1,3.4,4.1,5.8,7.7,5.8v64H48c-4.4,0-8,3.6-8,8v192c0,4.4,3.6,8,8,8h416
		c4.4,0,8-3.6,8-8v-55.6c0-0.1,0-0.3,0-0.4C477.3,419.4,480,405.7,480,392z M288,392c0-48.6,39.4-88,88-88s88,39.4,88,88
		s-39.4,88-88,88C327.4,479.9,288.1,440.6,288,392z M56,368h218.8c-3.7,15.8-3.7,32.2,0,48H56V368z M456,325.6
		c-7-8.5-15.3-15.8-24.6-21.6H456V325.6z M417.8,64l4,16h-27.5l4-16H417.8z M399.6,109.5L395.1,96h25.8l-4.5,13.5
		c-0.3,0.8-0.4,1.7-0.4,2.5v96h-16v-96C400,111.1,399.9,110.3,399.6,109.5z M384,224h48c4.4,0,8,3.6,8,8s-3.6,8-8,8h-48
		c-4.4,0-8-3.6-8-8S379.6,224,384,224z M392,256h32v32h-32V256z M292,210.6c-1.5-0.9-2.9-1.8-4.3-2.9c-17.6-13.4-20.9-38.5-7.5-56.1
		s38.5-20.9,56.1-7.5c9.9,7.6,15.7,19.3,15.7,31.8c0,14.3-7.7,27.5-20,34.6c-2.5,1.4-4,4.1-4,6.9V288h-32v-70.4
		C296,214.7,294.5,212.1,292,210.6L292,210.6z M160,216h3.4c3.2,4.7,7.5,8.6,12.6,11.4V288h-16V216z M174.8,118.4
		c-4.4-5.9-6.8-13.1-6.8-20.4c0-11.7,6-22.7,16-28.9v17c0,13.3,10.7,24,24,24s24-10.7,24-24v-17c10,6.2,16,17.1,16,28.9
		c0,7.4-2.4,14.5-6.8,20.4l-15.6,20.8c-1,1.4-1.6,3.1-1.6,4.8v144h-32v-56.1c0.6,0,1.3,0.1,1.9,0.1H208c4.4,0,8-3.6,8-8
		c0-1.2-0.3-2.5-0.8-3.6L192,174.1V144c0-1.7-0.6-3.4-1.6-4.8L174.8,118.4z M179.1,184l16,32h-1.2c-7.9,0-15.2-4.5-18.7-11.6
		c-1.4-2.7-4.1-4.4-7.2-4.4h-8v-16H179.1z M112,176h32v32h-32V176z M80,178.2l16,4v19.5l-16,4V178.2z M64,208H48v-32h16V208z
		 M120,224h24v64h-24V224z M56,304h264.6c-18.1,11.5-32.3,28.2-40.6,48H56V304z M56,432h224c8.3,19.8,22.5,36.5,40.6,48H56V432z
		 M456,480h-24.6c9.3-5.9,17.6-13.2,24.6-21.6V480z"/>
	<path class="st0" d="M431.9,375c0-0.3-0.1-0.7-0.2-1c0-0.1,0-0.1,0-0.2c-0.1-0.4-0.2-0.7-0.4-1v-0.1c-0.1-0.3-0.3-0.6-0.5-0.9
		c0-0.1-0.1-0.1-0.1-0.2c-0.2-0.3-0.4-0.6-0.6-0.9c0-0.1-0.1-0.1-0.1-0.2c-0.2-0.3-0.5-0.5-0.8-0.7l0,0l0,0l0,0l-48-40
		c-3-2.5-7.3-2.5-10.2,0l-48,40l0,0l0,0l0,0c-0.3,0.2-0.5,0.5-0.8,0.7c0,0.1-0.1,0.1-0.1,0.2c-0.2,0.3-0.4,0.6-0.6,0.9
		c0,0.1-0.1,0.1-0.1,0.2c-0.2,0.3-0.3,0.6-0.5,0.9v0.1c-0.1,0.3-0.3,0.7-0.4,1c0,0.1,0,0.1,0,0.2c-0.1,0.3-0.1,0.7-0.2,1v0.1
		c0,0.3-0.1,0.6-0.1,0.9v64c0,4.4,3.6,8,8,8h96c4.4,0,8-3.6,8-8v-64c0-0.3,0-0.6,0-0.9C431.9,375.1,431.9,375,431.9,375z M376,346.4
		l25.9,21.6h-51.8L376,346.4z M368,432v-16h16v16H368z M416,432h-16v-24c0-4.4-3.6-8-8-8h-32c-4.4,0-8,3.6-8,8v24h-16v-48h80V432z"
		/>
	<path class="st0" d="M303.1,199.5H321c2.9,0,5.5-1.5,6.9-4l8.9-15.5c1.4-2.5,1.4-5.5,0-8l-8.9-15.5c-1.4-2.5-4.1-4-6.9-4h-17.9
		c-2.9,0-5.5,1.5-6.9,4l-8.9,15.5c-1.4,2.5-1.4,5.5,0,8l8.9,15.5C297.6,198,300.2,199.5,303.1,199.5z M307.7,168.5h8.7l4.3,7.5
		l-4.3,7.5h-8.7l-4.3-7.5L307.7,168.5z"/>
</g>
</svg>
