<svg xmlns="http://www.w3.org/2000/svg" width="200px" viewBox="0 0 1771.56 625.49"><defs><style>.cls-1,.cls-2{fill:#fff;}.cls-2{stroke:#fff;stroke-miterlimit:10;stroke-width:7px;}</style></defs><g id="Layer_2" data-name="Layer 2"><g id="Layer_1-2" data-name="Layer 1"><path class="cls-1" d="M587.85,261.21V305H450.74V261.21Zm19.54,98.2v43.42H450.74a70.07,70.07,0,0,1-19.7-3.17h0a58,58,0,0,1-19.79-10.44h0a58.81,58.81,0,0,1-15.2-18.87h0Q390,358.74,390,341.87h0V185.23h0a22,22,0,0,1,1.67-8.52h0a22.19,22.19,0,0,1,4.59-7h0a20.47,20.47,0,0,1,6.93-4.68h0a22.24,22.24,0,0,1,8.68-1.67H607.39v43.42h-174v135h0q0,8.52,4.5,13h0q4.51,4.51,13.2,4.51h156.3ZM888.62,216.12v27.71h0A88.44,88.44,0,0,1,885,270.39h0A75,75,0,0,1,875,291h0a69.87,69.87,0,0,1-14.45,15.28h0a86.76,86.76,0,0,1-17.11,10.44h0a82.58,82.58,0,0,1-18,5.93h0a86.43,86.43,0,0,1-17.12,1.84h0L899,402.83H831.84l-90.51-78.32H710.1V281.09h98.19a50.2,50.2,0,0,0,15-3.43h0A37,37,0,0,0,835,270.23h0a31.69,31.69,0,0,0,7.6-11.27h0a40.08,40.08,0,0,0,2.62-15.13h0V216.46h0a13.4,13.4,0,0,0-.92-5.6h0a6.68,6.68,0,0,0-2.34-2.84h0a6.87,6.87,0,0,0-3-1.08h0a28.42,28.42,0,0,0-2.92-.17H692.74V402.83H649.31V185.23h0a22,22,0,0,1,1.67-8.52h0a22.19,22.19,0,0,1,4.59-7h0A20.47,20.47,0,0,1,662.5,165h0a22.33,22.33,0,0,1,8.69-1.67H836q14.52,0,24.54,5.26h0a50,50,0,0,1,16.29,13.21h0a51.24,51.24,0,0,1,9,17.12h0a60.11,60.11,0,0,1,2.76,17.2Zm294.92,44.09V306h0a105.45,105.45,0,0,1-7.51,40.25h0A95.29,95.29,0,0,1,1155.15,378h0a94.43,94.43,0,0,1-31.64,20.79h0a104.86,104.86,0,0,1-39.83,7.43h-58.79A105.46,105.46,0,0,1,985,398.74h0A94.25,94.25,0,0,1,953.25,378h0a96.34,96.34,0,0,1-21-31.73h0a104.3,104.3,0,0,1-7.6-40.25h0V260.21h0a104.22,104.22,0,0,1,7.6-40.16h0a95.27,95.27,0,0,1,21-31.73h0A96.07,96.07,0,0,1,985,167.53h0a104.47,104.47,0,0,1,39.91-7.52h58.79a103.7,103.7,0,0,1,39.83,7.52h0a96.27,96.27,0,0,1,31.64,20.79h0A94.14,94.14,0,0,1,1176,220.05h0a105.37,105.37,0,0,1,7.51,40.16ZM1140.12,306V260.21h0a63.49,63.49,0,0,0-4.09-23.3h0a51.57,51.57,0,0,0-11.52-17.86h0a51.4,51.4,0,0,0-17.87-11.53h0a62.3,62.3,0,0,0-23-4.09h-58.79a63,63,0,0,0-23.13,4.09h0a52.4,52.4,0,0,0-18,11.53h0a50.87,50.87,0,0,0-11.61,17.86h0a63.49,63.49,0,0,0-4.09,23.3h0V306h0a63.49,63.49,0,0,0,4.09,23.3h0a51.05,51.05,0,0,0,11.61,17.87h0a52.62,52.62,0,0,0,18,11.52h0a62.77,62.77,0,0,0,23.13,4.09h58.45a62.77,62.77,0,0,0,23.13-4.09h0a52.47,52.47,0,0,0,18-11.52h0a51,51,0,0,0,11.6-17.87h0a63.49,63.49,0,0,0,4.09-23.3Zm325.62-142.62V384.29h0A21.28,21.28,0,0,1,1464,393h0a22.46,22.46,0,0,1-4.67,6.93h0a21.23,21.23,0,0,1-6.93,4.59h0a22,22,0,0,1-8.52,1.67h0a23.58,23.58,0,0,1-8.1-1.5h0a19,19,0,0,1-7.26-4.85h0L1269.88,234.16V402.83h-43.42V181.89h0a20.81,20.81,0,0,1,3.76-12.11h0a23.3,23.3,0,0,1,9.6-8.1h0a22.09,22.09,0,0,1,12.7-1.25h0a20.62,20.62,0,0,1,11.19,6.09h0L1422.36,332V163.35Zm285.4,21.88v217.6h-43.4V344.05H1555.12v58.78h-43.38V283.09h0q0-26.22,9-48.26h0a112.55,112.55,0,0,1,25-37.91h0a114,114,0,0,1,37.91-24.72h0a126.32,126.32,0,0,1,47.76-8.85h97.86a22,22,0,0,1,8.52,1.67h0a21.35,21.35,0,0,1,7,4.68h0a21.48,21.48,0,0,1,4.67,7h0a22,22,0,0,1,1.67,8.52Zm-196.06,97.86v17.54h152.66V206.77h-76.3q-2,0-8.43.59h0a85.58,85.58,0,0,0-14.87,2.92h0a92.56,92.56,0,0,0-17.78,7.18h0a62.43,62.43,0,0,0-17.2,13.36h0a68.39,68.39,0,0,0-12.94,21.29h0q-5.1,12.78-5.1,31Z"/><path class="cls-2" d="M3.5,580.83v-6.58H16.34V472.18H3.5v-6.59H36.59v6.59H23.09V574.25h13.5v6.58Zm147,0v-6.58h12.84V538h0a14.79,14.79,0,0,0-3.87-9.22h0q-3.54-3.94-10.45-4.28h0a27.08,27.08,0,0,0-9.55,1.73h0a28,28,0,0,0-8.15,4.69h0a21.68,21.68,0,0,0-5.6,7.08h0a19.91,19.91,0,0,0-2,9h0V574.2h12.18v6.63H104.09v-6.58h12.84V525.68H105.07V519.1h17.45l.22,5.73h0q.17,2.8.33,5.1h0c.11,1.54.16,3.24.16,5.11h0a27.62,27.62,0,0,1,10.62-12.52h0a29.72,29.72,0,0,1,16.49-4.69h0q9.06,0,14.33,5.1h0a18.89,18.89,0,0,1,5.59,13.34h0v38h12v6.56ZM264.09,519.1V478.93H271V519.1h18.94v6.73H271v48.4h13.5v6.6H264.1v-55H249.74v-6.75Zm125.65,5.26h0a24.06,24.06,0,0,0-11.11,2.56h0a26.24,26.24,0,0,0-8.48,6.75h0a24.49,24.49,0,0,0-4.85,9.71h0a25.27,25.27,0,0,0-.25,11.28h0q11-4.45,22.06-8.81h0L409.33,537h0a23.54,23.54,0,0,0-8.06-9.14h0A20.27,20.27,0,0,0,389.74,524.36ZM418,540.83h0L392.5,551h0q-12.67,5-25.51,10.13h0a23.22,23.22,0,0,0,8.89,10.2h0a24.84,24.84,0,0,0,13.86,4h0a25,25,0,0,0,9.55-1.81h0a23.18,23.18,0,0,0,7.74-5.1h0c.77.88,1.48,1.73,2.14,2.55h0c.66.83,1.37,1.68,2.14,2.55h0a33.66,33.66,0,0,1-9.71,6.26h0a30.16,30.16,0,0,1-11.86,2.3h0a31,31,0,0,1-12.59-2.55h0a33.8,33.8,0,0,1-10.21-6.83h0A31.78,31.78,0,0,1,360,562.47h0a31,31,0,0,1-2.55-12.59h0A31.28,31.28,0,0,1,360,537.37h0a31.69,31.69,0,0,1,6.91-10.21h0a33.8,33.8,0,0,1,10.21-6.83h0a31.14,31.14,0,0,1,12.59-2.5h0a25.75,25.75,0,0,1,9.39,1.73h0a29.92,29.92,0,0,1,8.15,4.77h0a33.24,33.24,0,0,1,6.5,7.25h0A33.29,33.29,0,0,1,418,540.83Zm68,40v-6.58h12.84V525.68H487V519.1h17.45l.16,5.76h0q.17,2.8.33,5.1h0c.11,1.54.16,3.24.16,5.11h0a28.9,28.9,0,0,1,11.12-12.6h0a29.2,29.2,0,0,1,14.89-4.64h0l-.49,6.75h0a30.12,30.12,0,0,0-9.8,1.89h0a25.92,25.92,0,0,0-7.9,4.69h0a22.14,22.14,0,0,0-5.35,7.08h0a20.38,20.38,0,0,0-2,8.89h0V574.3h12.17v6.53Zm112.6,0v-6.58h12.67V525.68H598.61V519.1H618.2v55.15h12.18v6.58Zm10.86-83.63h0a5.12,5.12,0,0,1,1.65-3.87h0a5.38,5.38,0,0,1,3.79-1.56h0a5.14,5.14,0,0,1,3.62,1.56h0a5.16,5.16,0,0,1,1.64,3.87h0a5.16,5.16,0,0,1-1.64,3.87h0a5.14,5.14,0,0,1-3.62,1.56h0a5.38,5.38,0,0,1-3.79-1.56h0a5.11,5.11,0,0,1-1.66-3.87Zm88.57,52.68h0a31.28,31.28,0,0,1,2.55-12.51h0a32.78,32.78,0,0,1,6.92-10.29h0a32.81,32.81,0,0,1,10.2-6.91h0a31.2,31.2,0,0,1,12.6-2.55h0A31.7,31.7,0,0,1,743,520.17h0a33.68,33.68,0,0,1,10.37,6.91h0a31.75,31.75,0,0,1,7,10.29h0a31.28,31.28,0,0,1,2.55,12.51h0a31,31,0,0,1-2.55,12.59h0a31,31,0,0,1-7,10.13h0A34.35,34.35,0,0,1,743,579.43h0A31.7,31.7,0,0,1,730.32,582h0a31.28,31.28,0,0,1-12.58-2.55h0a33.63,33.63,0,0,1-10.2-6.83h0a32,32,0,0,1-6.92-10.13h0A31,31,0,0,1,698,549.88Zm6.75,0h0a25,25,0,0,0,2,9.88h0a25.38,25.38,0,0,0,5.44,8.06h0a25.38,25.38,0,0,0,8.06,5.44h0a25,25,0,0,0,9.88,2h0a25.62,25.62,0,0,0,10-2h0a25.16,25.16,0,0,0,8.15-5.44h0a25.18,25.18,0,0,0,5.43-8.06h0a24.65,24.65,0,0,0,2-9.88h0a24.65,24.65,0,0,0-2-9.88h0a25.18,25.18,0,0,0-5.43-8.06h0a26.28,26.28,0,0,0-8.15-5.52h0a24.57,24.57,0,0,0-10-2.06h0a24,24,0,0,0-9.88,2.06h0a26.41,26.41,0,0,0-8.06,5.52h0A25.38,25.38,0,0,0,706.8,540h0a24.84,24.84,0,0,0-2,9.88Zm125.61,31V574.3h12.83V525.68H831.38V519.1h17.45l.17,5.76h0q.16,2.8.33,5.1h0c.11,1.54.16,3.24.16,5.11h0a28.93,28.93,0,0,1,11.11-12.6h0a29.36,29.36,0,0,1,14.9-4.69h0l-.49,6.75h0a30.12,30.12,0,0,0-9.8,1.89h0a25.92,25.92,0,0,0-7.9,4.69h0a22.14,22.14,0,0,0-5.35,7.08h0a20.38,20.38,0,0,0-2,8.89h0v27.17h12.18v6.58Zm217.95,0V574.3h10.38V472.18h-10.38v-6.59h34.58a62,62,0,0,1,22.38,4h0a55,55,0,0,1,18.42,11.56h0a54.25,54.25,0,0,1,12.51,18.19h0a59.78,59.78,0,0,1,4.61,23.87h0a63.39,63.39,0,0,1-3.37,19.92h0a51.93,51.93,0,0,1-11,18.6h0a57.18,57.18,0,0,1-19.67,13.75h0q-12.08,5.35-29.49,5.35l-26.87,0Zm34.58-108.65h-17.45v102h14.32q13.67,0,23.87-4.37h0a49.93,49.93,0,0,0,17-11.52h0a47.46,47.46,0,0,0,10.13-16.3h0a53.91,53.91,0,0,0,3.37-18.85h0a53.43,53.43,0,0,0-4-21.15h0a47.73,47.73,0,0,0-11-16.13h0a48.22,48.22,0,0,0-16.3-10.21h0a55.49,55.49,0,0,0-19.83-3.54Zm157.7,52.18h0a24,24,0,0,0-11.11,2.56h0a26.24,26.24,0,0,0-8.48,6.75h0a24.49,24.49,0,0,0-4.85,9.71h0a25.27,25.27,0,0,0-.25,11.28h0q11-4.46,22.06-8.81h0l22.22-8.81h0a23.61,23.61,0,0,0-8.06-9.14h0a20.25,20.25,0,0,0-11.54-3.59ZM1269,540.83h0L1243.43,551h0l-25.52,10.13h0a23.4,23.4,0,0,0,8.89,10.2h0a24.9,24.9,0,0,0,13.83,4h0a25,25,0,0,0,9.55-1.81h0a23.18,23.18,0,0,0,7.74-5.1h0c.77.88,1.48,1.73,2.14,2.55h0c.66.83,1.37,1.68,2.14,2.55h0a33.66,33.66,0,0,1-9.71,6.26h0a30.16,30.16,0,0,1-11.86,2.3h0a31,31,0,0,1-12.59-2.55h0a33.8,33.8,0,0,1-10.21-6.83h0a31.78,31.78,0,0,1-6.91-10.13h0a31,31,0,0,1-2.55-12.59h0a31.28,31.28,0,0,1,2.55-12.51h0a31.69,31.69,0,0,1,6.91-10.21h0a33.8,33.8,0,0,1,10.21-6.83h0a31,31,0,0,1,12.59-2.55h0a25.75,25.75,0,0,1,9.39,1.73h0a29.86,29.86,0,0,1,8.14,4.77h0a33,33,0,0,1,6.51,7.25h0A33.28,33.28,0,0,1,1269,540.83Zm70.79,23H1346v8.4h0a14.27,14.27,0,0,0,6.5,2.63h0a49.72,49.72,0,0,0,7,.5h0a14.33,14.33,0,0,0,3.62-.58h0a12.92,12.92,0,0,0,4.12-2h0a14.15,14.15,0,0,0,3.45-3.54h0a9,9,0,0,0,1.49-5.27h0q0-4.28-2.14-6.59h0a15.52,15.52,0,0,0-5.52-3.7h0a59.56,59.56,0,0,0-7.33-2.47h0a34.39,34.39,0,0,1-7.32-2.88h0a17.77,17.77,0,0,1-5.68-4.77h0q-2.31-3-2.31-8.4h0a16.2,16.2,0,0,1,1.65-7.49h0a17.11,17.11,0,0,1,4.2-5.35h0a17.29,17.29,0,0,1,5.76-3.21h0a19.38,19.38,0,0,1,6.17-1.07h0c.44,0,1.35.05,2.72.16h0a35.47,35.47,0,0,1,4.69.74h0a26.36,26.36,0,0,1,5.19,1.73h0a13.39,13.39,0,0,1,4.36,3.13h0V536h-6.26v-8.65h0a7.67,7.67,0,0,0-2.79-1.48h0a23.34,23.34,0,0,0-3.21-.74h0a17.55,17.55,0,0,0-2.8-.25h-1.73a13.87,13.87,0,0,0-3.95.57h0a11.12,11.12,0,0,0-3.62,1.82h0a8.52,8.52,0,0,0-2.56,3.12h0a11,11,0,0,0-.9,4.7h0a7.23,7.23,0,0,0,2.3,5.67h0a20.18,20.18,0,0,0,5.68,3.46h0q3.38,1.39,7.25,2.64h0a35.49,35.49,0,0,1,7.24,3.21h0a17.86,17.86,0,0,1,5.6,5.1h0a14.21,14.21,0,0,1,2.22,8.39h0a19.19,19.19,0,0,1-1.07,6h0a18.74,18.74,0,0,1-3.38,6h0a18.09,18.09,0,0,1-6.17,4.69h0a20.86,20.86,0,0,1-9.3,1.9h0c-1.1,0-2.5-.08-4.2-.25h0a42.09,42.09,0,0,1-5.35-.91h0a30.63,30.63,0,0,1-5.43-1.81h0a13.19,13.19,0,0,1-4.45-3.12h0Zm106.19,17v-6.58h12.67V525.68h-12.67V519.1h19.59v55.15h12.22v6.58Zm10.81-83.63h0a5.12,5.12,0,0,1,1.65-3.87h0a5.3,5.3,0,0,1,3.78-1.56h0a5.14,5.14,0,0,1,3.62,1.56h0a5.12,5.12,0,0,1,1.65,3.87h0a5.11,5.11,0,0,1-1.65,3.87h0a5.14,5.14,0,0,1-3.62,1.56h0a5.3,5.3,0,0,1-3.78-1.56h0A5.11,5.11,0,0,1,1456.74,497.2Zm150.47,21.9h15.14v6.58H1610v60.91h0a40.67,40.67,0,0,1-2.47,14.57h0a33.8,33.8,0,0,1-6.75,11.11h0a29.55,29.55,0,0,1-10,7.08h0A32.41,32.41,0,0,1,1578.6,622h0a44.93,44.93,0,0,1-13.91-2.64h0a28,28,0,0,1-11.44-7.24h0l4.94-5.11h0a22.13,22.13,0,0,0,9.22,5.93h0a32.82,32.82,0,0,0,11,2h0a23,23,0,0,0,9.63-2.06h0a22.75,22.75,0,0,0,7.82-5.85h0a28.93,28.93,0,0,0,5.26-9.13h0a33.71,33.71,0,0,0,2-11.77h0V574.25h0c.11-1.21.22-2.45.33-3.71h0c.11-1.26.22-2.49.33-3.7h0a22.43,22.43,0,0,1-3.71,5.68h0a24.9,24.9,0,0,1-5.76,4.77h0a34,34,0,0,1-7.65,3.38h0a30.89,30.89,0,0,1-9.06,1.31h0a31.7,31.7,0,0,1-12.67-2.55h0a33.5,33.5,0,0,1-10.29-6.83h0a32,32,0,0,1-6.92-10.13h0a31,31,0,0,1-2.55-12.59h0a30.87,30.87,0,0,1,2.55-12.43h0a33.13,33.13,0,0,1,6.92-10.2h0a32.78,32.78,0,0,1,10.29-6.92h0a31.7,31.7,0,0,1,12.67-2.55h0a29,29,0,0,1,9.06,1.4h0a33.44,33.44,0,0,1,7.73,3.62h0a25.23,25.23,0,0,1,5.85,5.1h0a22.73,22.73,0,0,1,3.54,5.68h0c0-2.41.08-4.83.24-7.24h0c.18-2.41.32-4.83.43-7.24Zm-55.15,30.78h0a25,25,0,0,0,2,9.88h0a26.14,26.14,0,0,0,5.35,8.06h0a24.31,24.31,0,0,0,8.07,5.44h0a25.88,25.88,0,0,0,10.12,2h0a25.26,25.26,0,0,0,10-2h0a25.53,25.53,0,0,0,8.14-5.43h0a25.18,25.18,0,0,0,5.43-8.06h0a24.65,24.65,0,0,0,2-9.88h0a25.26,25.26,0,0,0-2-10h0a25,25,0,0,0-5.43-8.15h0a25.67,25.67,0,0,0-8.07-5.43h0a25.26,25.26,0,0,0-10-2h0a25.84,25.84,0,0,0-10.12,2h0a24.44,24.44,0,0,0-8.07,5.43h0a26,26,0,0,0-5.35,8.15h0a25.6,25.6,0,0,0-2,10Zm184.21,31V574.3h12.84V538h0a14.79,14.79,0,0,0-3.87-9.22h0q-3.54-3.94-10.45-4.28h0a27.08,27.08,0,0,0-9.55,1.73h0a28,28,0,0,0-8.15,4.69h0a21.68,21.68,0,0,0-5.6,7.08h0a20.06,20.06,0,0,0-2.06,9h0V574.2h12.19v6.63h-31.78v-6.58h12.9V525.68h-11.86V519.1h17.45l.17,5.76h0q.16,2.8.33,5.1h0c.11,1.54.16,3.24.16,5.11h0a27.62,27.62,0,0,1,10.62-12.52h0a29.59,29.59,0,0,1,16.53-4.72h0q9.06,0,14.33,5.1h0a18.89,18.89,0,0,1,5.59,13.34h0v38h12v6.56Z"/><path class="cls-1" d="M196.24,0H.74l195.5,399.77,0,.06L391.74,0Zm-171,6.17L196.08,25.51l.16,0L366.72,6.17h2.16L196.24,52.43l-.28.07L23,6.17ZM196.24,237.31,21.87,17.3,196.24,121.16h0L370.55,17,196.27,237.34Z"/></g></g></svg>