<?xml version="1.0" encoding="utf-8"?>
<!-- Generator: Adobe Illustrator 25.2.0, SVG Export Plug-In . SVG Version: 6.00 Build 0)  -->
<svg version="1.1" id="Layer_1" xmlns="http://www.w3.org/2000/svg" xmlns:xlink="http://www.w3.org/1999/xlink" x="0px" y="0px"
	 viewBox="0 0 512 512" style="enable-background:new 0 0 512 512;" xml:space="preserve">
<style type="text/css">
	.st0{fill:#1C75B8;}
</style>
<g id="Page-1">
	<g id="_x30_24---Fire-Place">
		<path id="Shape" class="st0" d="M494.9,170.7h-17.3c5.6-7.3,8.7-16.3,8.8-25.6c0-4.7-3.8-8.5-8.5-8.5h-8.5V68.3
			c0-7.5-4.9-14-12-16.2c1.6-3,2.7-6.2,3.3-9.6c1.2-6.3-2.7-12.5-9-14.1c-4.7-1.1-10.3-9.8-11.7-18.2c-0.7-4-3.2-7.4-6.9-9.1
			c-3.6-1.6-7.7-1.4-11.1,0.6c-10.6,5.9-18,16.2-20.3,28.2c-1.3,7.5,0,15.3,3.5,22c-7.4,2-12.6,8.7-12.7,16.4v68.3H384
			c-4.7,0-8.5,3.8-8.5,8.5c0,9.3,3.1,18.3,8.8,25.6h-51.4V17.1h17.1c4.7,0,8.5-3.8,8.5-8.5S354.6,0,349.9,0H162.1
			c-4.7,0-8.5,3.8-8.5,8.5s3.8,8.5,8.5,8.5h17.1v153.6h-27l-31.5-41.4l6.6-22c1.6-5.2,0.6-10.8-2.7-15.1s-8.3-6.9-13.7-6.9H57.6
			c-7.5,0-14.2,4.9-16.3,12.2l-22,73.2h-2.2c-9.4,0-17.1,7.6-17.1,17.1v17.1c0,9.4,7.6,17.1,17.1,17.1v59.7c0,10.8,6.9,20.4,17.1,24
			v138.1C15.3,443.7,0,459,0,477.9v17.1c0,9.4,7.6,17.1,17.1,17.1h477.9c9.4,0,17.1-7.6,17.1-17.1v-17.1c0-18.9-15.3-34.1-34.1-34.1
			V305.6c10.2-3.6,17-13.2,17.1-24v-59.7c9.4,0,17.1-7.6,17.1-17.1v-17.1C512,178.3,504.4,170.7,494.9,170.7z M418.5,32.7
			c0.8-4.7,3.1-8.9,6.5-12.2c2.9,9.5,9.2,17.5,17.7,22.6c-2.1,5.2-7.4,8.5-13,8c-3.3-0.4-6.2-2.2-8.1-4.9
			C418.8,42.4,417.7,37.5,418.5,32.7z M409.6,68.3h42.7v68.3h-42.7V68.3z M394,153.6h73.9c-3.6,10.2-13.3,17.1-24.1,17.1h-25.6
			C407.3,170.7,397.6,163.8,394,153.6L394,153.6z M230.2,81.5c8.1-3.5,16.9-5.1,25.8-4.7c8.8-0.4,17.5,1.1,25.6,4.5v89.3h-51.2
			L230.2,81.5z M196.3,17.1h119.5v153.6h-17.1V81.4c0.1-6.4-3.5-12.3-9.2-15.2c-10.5-4.8-21.9-7-33.4-6.5H256
			c-11.5-0.5-23,1.8-33.5,6.5c-5.7,2.9-9.3,8.8-9.2,15.2v89.3h-17.1V17.1z M130.7,170.7h-22.5l6.3-21.1L130.7,170.7z M57.6,102.4
			h53.4l-20.5,68.3H37.1L57.6,102.4z M51.2,384h25.6c4.7,0,8.5-3.8,8.5-8.5c0-4.7-3.8-8.5-8.5-8.5H51.2v-59.7h51.2v25.6H76.8
			c-4.7,0-8.5,3.8-8.5,8.5s3.8,8.5,8.5,8.5h25.6v51.2H76.8c-4.7,0-8.5,3.8-8.5,8.5c0,4.7,3.8,8.5,8.5,8.5h25.6v25.6H51.2V384z
			 M392.5,443.7h-17.1v-93.9c0-28.3-22.9-51.2-51.2-51.2H187.7c-28.3,0-51.2,22.9-51.2,51.2v93.9h-17.1V303.3
			c41.2-25,88.4-38.4,136.5-38.7c48.2,0.4,95.3,13.8,136.5,38.7V443.7z M332.8,341.3c-4.7,0-8.5,3.8-8.5,8.5v93.9h-30.6
			c6.9-7.7,11.5-17.2,13.2-27.5c1.6-8.2-3.4-16.3-11.5-18.5c-14.5-3.5-26.8-25.1-29.9-43.1c-0.8-5.2-4.2-9.6-8.9-11.9
			c-4.6-2.1-9.9-1.8-14.3,0.7c-19,10.6-32.4,29-36.5,50.3c-2.9,16.5,1.1,33.4,11.1,46.9c0.8,1,1.6,2,2.5,3h-31.5v-93.8
			c0-4.7-3.8-8.5-8.5-8.5s-8.5,3.8-8.5,8.5v93.9h-17.1v-93.9c0-18.9,15.3-34.1,34.1-34.1h136.5c18.9,0,34.1,15.3,34.1,34.1v93.9
			h-17.1v-93.9C341.3,345.2,337.5,341.3,332.8,341.3z M222.5,396.8c3-15.7,12.6-29.4,26.5-37.4c4.4,22.6,19.9,48.6,41,54.7
			c-2.7,18.2-19,31.1-37.3,29.5c-8.9-1.1-17-5.8-22.2-13.1C223.3,420.8,220.5,408.6,222.5,396.8L222.5,396.8z M494.9,477.9v17.1
			H17.1v-17.1c0-9.4,7.6-17.1,17.1-17.1h443.7C487.3,460.8,494.9,468.4,494.9,477.9z M409.6,443.7V384h25.6c4.7,0,8.5-3.8,8.5-8.5
			c0-4.7-3.8-8.5-8.5-8.5h-25.6v-59.7h51.2v25.6h-25.6c-4.7,0-8.5,3.8-8.5,8.5s3.8,8.5,8.5,8.5h25.6v51.2h-25.6
			c-4.7,0-8.5,3.8-8.5,8.5c0,4.7,3.8,8.5,8.5,8.5h25.6v25.6H409.6z M494.9,204.8H153.6c-4.7,0-8.5,3.8-8.5,8.5s3.8,8.5,8.5,8.5
			h324.3v25.6h-76.8c-4.7,0-8.5,3.8-8.5,8.5c0,4.7,3.8,8.5,8.5,8.5h76.8v17.1c0,4.7-3.8,8.5-8.5,8.5h-65.6
			c-90.2-56.9-205.1-56.9-295.4,0H42.7c-4.7,0-8.5-3.8-8.5-8.5v-17.1h76.8c4.7,0,8.5-3.8,8.5-8.5c0-4.7-3.8-8.5-8.5-8.5H34.1v-25.6
			h85.3c4.7,0,8.5-3.8,8.5-8.5s-3.8-8.5-8.5-8.5H17.1v-17.1h477.9V204.8z"/>
	</g>
</g>
</svg>
