<?xml version="1.0" encoding="utf-8"?>
<!-- Generator: Adobe Illustrator 25.2.0, SVG Export Plug-In . SVG Version: 6.00 Build 0)  -->
<svg version="1.1" id="Outline" xmlns="http://www.w3.org/2000/svg" xmlns:xlink="http://www.w3.org/1999/xlink" x="0px" y="0px"
	 viewBox="0 0 512 512" style="enable-background:new 0 0 512 512;" xml:space="preserve">
<style type="text/css">
	.st0{fill:#1C75B8;}
</style>
<g>
	<path class="st0" d="M472,16H40c-13.2,0-24,10.8-24,24v304v32c0,13.2,10.8,24,24,24h167.3l-6.7,80H192v16h16h96h16v-16h-8.6
		l-6.7-80H472c13.2,0,24-10.8,24-24v-32V40C496,26.8,485.2,16,472,16z M32,40c0-4.4,3.6-8,8-8h432c4.4,0,8,3.6,8,8v296H32V40z
		 M295.3,480h-78.6l6.7-80h65.3L295.3,480z M480,376c0,4.4-3.6,8-8,8H40c-4.4,0-8-3.6-8-8v-24h448V376z"/>
	<path class="st0" d="M256,464c13.2,0,24-10.8,24-24s-10.8-24-24-24s-24,10.8-24,24S242.8,464,256,464z M256,432c4.4,0,8,3.6,8,8
		s-3.6,8-8,8s-8-3.6-8-8S251.6,432,256,432z"/>
	<path class="st0" d="M208,264h-16v24H80v-96h32v-16H80V80h112v96h-32v16h32v24h16V80h96v32h16V80h112v96H320v-8h-16v48h16v-24h112
		v8h16V72c0-4.4-3.6-8-8-8H72c-4.4,0-8,3.6-8,8v224c0,4.4,3.6,8,8,8h264v-16H208V264z"/>
	<path class="st0" d="M435.3,248l10.3-10.3c2.3-2.3,3-5.7,1.7-8.7s-4.2-4.9-7.4-4.9h-64c-4.4,0-8,3.6-8,8v64c0,3.2,1.9,6.2,4.9,7.4
		c3,1.2,6.4,0.6,8.7-1.7l10.3-10.3l26.3,26.3c1.6,1.6,3.6,2.3,5.7,2.3s4.1-0.8,5.7-2.3l32-32c3.1-3.1,3.1-8.2,0-11.3L435.3,248z
		 M424,300.7l-26.3-26.3c-1.6-1.6-3.6-2.3-5.7-2.3s-4.1,0.8-5.7,2.3l-2.3,2.3V240h36.7l-2.3,2.3c-3.1,3.1-3.1,8.2,0,11.3l26.3,26.3
		L424,300.7z"/>
</g>
</svg>
