<?xml version="1.0" encoding="utf-8"?>
<!-- Generator: Adobe Illustrator 25.2.0, SVG Export Plug-In . SVG Version: 6.00 Build 0)  -->
<svg version="1.1" id="Layer_1" xmlns="http://www.w3.org/2000/svg" xmlns:xlink="http://www.w3.org/1999/xlink" x="0px" y="0px"
	 viewBox="0 0 512 512" style="enable-background:new 0 0 512 512;" xml:space="preserve">
<style type="text/css">
	.st0{fill:#1C75B8;}
</style>
<g id="XMLID_1154_">
	<g id="XMLID_105_">
		<path id="XMLID_517_" class="st0" d="M502,324H10c-5.5,0-10,4.5-10,10v168c0,5.5,4.5,10,10,10h492c5.5,0,10-4.5,10-10V334
			C512,328.5,507.5,324,502,324z M49.6,492c11-6,22.6-11.1,34.4-15.2c5.2-1.8,8-7.5,6.2-12.7c-1.8-5.2-7.5-8-12.7-6.2
			c-14.7,5.1-29,11.6-42.5,19.4l-15,8.6V416h113.7c5.5,0,10-4.5,10-10s-4.5-10-10-10H20v-52h207.1c-19.4,6.3-38.4,14-56.6,23.1
			c-3.6,1.8-5.7,5.5-5.5,9.4c0.2,4,2.7,7.4,6.4,8.9l10.3,3.9C228.4,407,277.3,416,327.1,416c5.5,0,10-4.5,10-10s-4.5-10-10-10
			c-43.1,0-85.4-7.1-126-21c47.8-20.3,99.8-30.9,151.8-30.9L492,344v52h-90c-5.5,0-10,4.5-10,10s4.5,10,10,10h90v76H49.6z"/>
		<path id="XMLID_521_" class="st0" d="M256,444h-96.2c-5.5,0-10,4.5-10,10s4.5,10,10,10H256c5.5,0,10-4.5,10-10S261.5,444,256,444z
			"/>
		<path id="XMLID_522_" class="st0" d="M438.6,444H307c-5.5,0-10,4.5-10,10s4.5,10,10,10h131.6c5.5,0,10-4.5,10-10
			S444.1,444,438.6,444z"/>
		<path id="XMLID_525_" class="st0" d="M53,185.3h221.5c5.5,0,10-4.5,10-10V174h118.3v28h-9.3c-10.5,0-19,8.5-19,19v30
			c0,10.5,8.5,19,19,19H493c10.5,0,19-8.5,19-19v-30c0-10.5-8.5-19-19-19h-9.3v-28h4.2c5.5,0,10-4.5,10-10V90.7
			c0-50-40.7-90.7-90.7-90.7h-32.6c-5.5,0-10,4.5-10,10v27.4c0,5.5,4.5,10,10,10c14.7,0,26.7,12,26.7,26.7c0,9.2-7.5,16.7-16.7,16.7
			h-100v-1.3c0-5.5-4.5-10-10-10h-87.1c-5.5,0-10,4.5-10,10s4.5,10,10,10h77.1v65.9H53c-18.2,0-33-14.8-33-33s14.8-33,33-33h44.4
			c5.5,0,10-4.5,10-10s-4.5-10-10-10H53c-29.2,0-53,23.8-53,53S23.8,185.3,53,185.3L53,185.3z M492,250h-97.5v-28H492V250z
			 M421.1,74C421.1,74,421.1,74,421.1,74C421.1,74,421.1,74,421.1,74C421.1,74,421.1,74,421.1,74C421.1,74,421.1,74,421.1,74
			c0-22.3-15.7-41-36.7-45.6V20h22.6c39,0,70.7,31.7,70.7,70.7V154h-4.2c-5.5,0-10,4.5-10,10v38h-40.8v-38c0-5.5-4.5-10-10-10h-18.3
			v-44.7C409.8,104.9,421.1,90.8,421.1,74L421.1,74z M374.5,110.7V154h-90v-43.3H374.5z"/>
		<path id="XMLID_528_" class="st0" d="M300.7,300c5.5,0,10-4.5,10-10v-30.7h5c5.5,0,10-4.5,10-10s-4.5-10-10-10h-30
			c-5.5,0-10,4.5-10,10s4.5,10,10,10h5V290C290.7,295.5,295.1,300,300.7,300L300.7,300z"/>
		<path id="XMLID_529_" class="st0" d="M189.8,300c5.5,0,10-4.5,10-10v-30.7h5c5.5,0,10-4.5,10-10s-4.5-10-10-10h-30
			c-5.5,0-10,4.5-10,10s4.5,10,10,10h5V290C179.8,295.5,184.3,300,189.8,300z"/>
		<path id="XMLID_530_" class="st0" d="M79,300c5.5,0,10-4.5,10-10v-30.7h5c5.5,0,10-4.5,10-10s-4.5-10-10-10H64
			c-5.5,0-10,4.5-10,10s4.5,10,10,10h5V290C69,295.5,73.5,300,79,300z"/>
		<path id="XMLID_531_" class="st0" d="M142.3,99.4c5.5,0,10-4.5,10-10v-0.1c0-5.5-4.5-10-10-10s-10,4.5-10,10v0.1
			C132.3,94.9,136.8,99.4,142.3,99.4z"/>
	</g>
</g>
</svg>
