<?xml version="1.0" encoding="utf-8"?>
<!-- Generator: Adobe Illustrator 25.2.0, SVG Export Plug-In . SVG Version: 6.00 Build 0)  -->
<svg version="1.1" id="Layer_1" xmlns="http://www.w3.org/2000/svg" xmlns:xlink="http://www.w3.org/1999/xlink" x="0px" y="0px"
	 viewBox="0 0 512 512" style="enable-background:new 0 0 512 512;" xml:space="preserve">
<style type="text/css">
	.st0{fill:#1C75B8;}
</style>
<path class="st0" d="M232,352H40c-13.2,0-24-10.8-24-24V24C16,10.8,26.8,0,40,0h304c13.2,0,24,10.8,24,24v128c0,4.4-3.6,8-8,8
	s-8-3.6-8-8V24c0-4.4-3.6-8-8-8H40c-4.4,0-8,3.6-8,8v304c0,4.4,3.6,8,8,8h192c4.4,0,8,3.6,8,8S236.4,352,232,352z"/>
<path class="st0" d="M160,88c-4.4,0-8-3.6-8-8V8c0-4.4,3.6-8,8-8s8,3.6,8,8v72C168,84.4,164.4,88,160,88z"/>
<path class="st0" d="M224,88c-4.4,0-8-3.6-8-8V8c0-4.4,3.6-8,8-8s8,3.6,8,8v72C232,84.4,228.4,88,224,88z"/>
<path class="st0" d="M160,88c-2.9,0-5.8-1.6-7.2-4.4c-2-3.9-0.4-8.8,3.6-10.7l32-16c4-2,8.8-0.4,10.7,3.6c2,4,0.4,8.8-3.6,10.7
	l-32,16C162.4,87.7,161.2,88,160,88z"/>
<path class="st0" d="M224,88c-1.2,0-2.4-0.3-3.6-0.8l-32-16c-4-2-5.6-6.8-3.6-10.7c2-4,6.8-5.6,10.7-3.6l32,16
	c3.9,2,5.6,6.8,3.6,10.7C229.8,86.4,226.9,88,224,88z"/>
<path class="st0" d="M144,288H64c-4.4,0-8-3.6-8-8s3.6-8,8-8h80c4.4,0,8,3.6,8,8S148.4,288,144,288z"/>
<path class="st0" d="M104,312H64c-4.4,0-8-3.6-8-8s3.6-8,8-8h40c4.4,0,8,3.6,8,8S108.4,312,104,312z"/>
<path class="st0" d="M488,512H232c-4.4,0-8-3.6-8-8V152c0-4.4,3.6-8,8-8h256c4.4,0,8,3.6,8,8v352C496,508.4,492.4,512,488,512z
	 M240,496h240V160H240V496z"/>
<path class="st0" d="M320,192c-3.6,0-6.8-2.4-7.8-6.1l-8-32c-1.1-4.3,1.5-8.6,5.8-9.7c4.3-1.1,8.6,1.5,9.7,5.8l8,32
	c1.1,4.3-1.5,8.6-5.8,9.7C321.3,191.9,320.6,192,320,192z"/>
<path class="st0" d="M400,192h-80c-4.4,0-8-3.6-8-8s3.6-8,8-8h80c4.4,0,8,3.6,8,8S404.4,192,400,192z"/>
<path class="st0" d="M400,192c-0.6,0-1.3-0.1-1.9-0.2c-4.3-1.1-6.9-5.4-5.8-9.7l8-32c1.1-4.3,5.4-6.9,9.7-5.8
	c4.3,1.1,6.9,5.4,5.8,9.7l-8,32C406.8,189.6,403.6,192,400,192z"/>
<path class="st0" d="M318,184h-62c-4.4,0-8-3.6-8-8s3.6-8,8-8h62c4.4,0,8,3.6,8,8S322.4,184,318,184z"/>
<path class="st0" d="M464,184h-62c-4.4,0-8-3.6-8-8s3.6-8,8-8h62c4.4,0,8,3.6,8,8S468.4,184,464,184z"/>
<path class="st0" d="M464,488c-4.4,0-8-3.6-8-8V176c0-4.4,3.6-8,8-8s8,3.6,8,8v304C472,484.4,468.4,488,464,488z"/>
<path class="st0" d="M464,488H256c-4.4,0-8-3.6-8-8s3.6-8,8-8h208c4.4,0,8,3.6,8,8S468.4,488,464,488z"/>
<path class="st0" d="M256,488c-4.4,0-8-3.6-8-8V176c0-4.4,3.6-8,8-8s8,3.6,8,8v304C264,484.4,260.4,488,256,488z"/>
<path class="st0" d="M304,280c-2,0-4.1-0.8-5.7-2.3l-8-8c-3.1-3.1-3.1-8.2,0-11.3s8.2-3.1,11.3,0l8,8c3.1,3.1,3.1,8.2,0,11.3
	C308.1,279.2,306,280,304,280z"/>
<path class="st0" d="M304,280c-2,0-4.1-0.8-5.7-2.3c-3.1-3.1-3.1-8.2,0-11.3l24-24c3.1-3.1,8.2-3.1,11.3,0s3.1,8.2,0,11.3l-24,24
	C308.1,279.2,306,280,304,280z"/>
<path class="st0" d="M424,256h-64c-4.4,0-8-3.6-8-8s3.6-8,8-8h64c4.4,0,8,3.6,8,8S428.4,256,424,256z"/>
<path class="st0" d="M384,280h-23.2c-4.4,0-8-3.6-8-8s3.6-8,8-8H384c4.4,0,8,3.6,8,8S388.4,280,384,280z"/>
<path class="st0" d="M304,352c-2,0-4.1-0.8-5.7-2.3l-8-8c-3.1-3.1-3.1-8.2,0-11.3s8.2-3.1,11.3,0l8,8c3.1,3.1,3.1,8.2,0,11.3
	C308.1,351.2,306,352,304,352z"/>
<path class="st0" d="M304,352c-2,0-4.1-0.8-5.7-2.3c-3.1-3.1-3.1-8.2,0-11.3l24-24c3.1-3.1,8.2-3.1,11.3,0s3.1,8.2,0,11.3l-24,24
	C308.1,351.2,306,352,304,352z"/>
<path class="st0" d="M424,328h-64c-4.4,0-8-3.6-8-8s3.6-8,8-8h64c4.4,0,8,3.6,8,8S428.4,328,424,328z"/>
<path class="st0" d="M384,352h-23.2c-4.4,0-8-3.6-8-8s3.6-8,8-8H384c4.4,0,8,3.6,8,8S388.4,352,384,352z"/>
<path class="st0" d="M304,424c-2,0-4.1-0.8-5.7-2.3l-8-8c-3.1-3.1-3.1-8.2,0-11.3s8.2-3.1,11.3,0l8,8c3.1,3.1,3.1,8.2,0,11.3
	C308.1,423.2,306,424,304,424z"/>
<path class="st0" d="M304,424c-2,0-4.1-0.8-5.7-2.3c-3.1-3.1-3.1-8.2,0-11.3l24-24c3.1-3.1,8.2-3.1,11.3,0s3.1,8.2,0,11.3l-24,24
	C308.1,423.2,306,424,304,424z"/>
<path class="st0" d="M424,400h-64c-4.4,0-8-3.6-8-8s3.6-8,8-8h64c4.4,0,8,3.6,8,8S428.4,400,424,400z"/>
<path class="st0" d="M384,424h-23.2c-4.4,0-8-3.6-8-8s3.6-8,8-8H384c4.4,0,8,3.6,8,8S388.4,424,384,424z"/>
</svg>
