<?xml version="1.0" encoding="utf-8"?>
<!-- Generator: Adobe Illustrator 25.2.0, SVG Export Plug-In . SVG Version: 6.00 Build 0)  -->
<svg version="1.1" id="texture" xmlns="http://www.w3.org/2000/svg" xmlns:xlink="http://www.w3.org/1999/xlink" x="0px" y="0px"
	 viewBox="0 0 512 512" style="enable-background:new 0 0 512 512;" xml:space="preserve">
<style type="text/css">
	.st0{fill:#1C75B8;}
</style>
<g>
	<path class="st0" d="M434.9,155.5l4.9-4.9c2.7-2.7,2.7-7,0-9.7c-2.7-2.7-7-2.7-9.7,0l-4.9,4.9l-4.9-4.9c-2.7-2.7-7-2.7-9.7,0
		c-2.7,2.7-2.7,7,0,9.7l4.9,4.9l-4.9,4.9c-2.7,2.7-2.7,7,0,9.7c1.3,1.3,3.1,2,4.8,2c1.7,0,3.5-0.7,4.8-2l4.9-4.9l4.9,4.9
		c1.3,1.3,3.1,2,4.8,2s3.5-0.7,4.8-2c2.7-2.7,2.7-7,0-9.7L434.9,155.5z"/>
	<circle class="st0" cx="370.5" cy="87" r="6.8"/>
	<path class="st0" d="M275.7,105.3c11.6,0,21.1-9.5,21.1-21.1s-9.5-21.1-21.1-21.1c-11.6,0-21.1,9.5-21.1,21.1
		S264.1,105.3,275.7,105.3z M275.7,76.7c4.1,0,7.4,3.3,7.4,7.4c0,4.1-3.3,7.4-7.4,7.4s-7.4-3.3-7.4-7.4
		C268.2,80.1,271.6,76.7,275.7,76.7z"/>
	<path class="st0" d="M384.3,141.7c0-3.8-3.1-6.8-6.8-6.8H77.1c-3.8,0-6.8,3.1-6.8,6.8v300.4c0,3.8,3.1,6.8,6.8,6.8h300.4
		c3.8,0,6.8-3.1,6.8-6.8v-29.7c0-3.8-3.1-6.8-6.8-6.8s-6.8,3.1-6.8,6.8v22.9h-69.7c-3.4-5.6-10.9-17.6-21.9-32.3
		c-12.6-16.8-8.7-40.4,1-70.7c1-3.2,2.9-7.3,5.6-8.1c6.7-2,21.4,9.4,33.3,18.6c3.7,2.9,7.4,5.7,11,8.4
		c19.6,14.4,34.5,18.7,40.7,19.9v8.5c0,3.8,3.1,6.8,6.8,6.8s6.8-3.1,6.8-6.8L384.3,141.7L384.3,141.7z M370.6,277
		c-4.8-4.1-10.9-8.1-18.2-10.5c-6.3-2.1-10.8-6.6-12-11.9c-0.9-4,0.4-7.8,3.4-10.6c6.3-5.8,18.1-14,26.7-19.9L370.6,277L370.6,277z
		 M370.6,207.7c-7.6,4.9-26.7,17.7-36,26.2c-6.6,6-9.4,14.8-7.6,23.5c2.2,10.2,10.1,18.4,21.1,22c11.7,3.9,19.8,13.7,22.5,17.4v18.2
		c-2.4-1.6-5.3-4-8.8-7.5c-15.3-15.3-65.5-37-102.9-22c-28.3,11.3-28.7,28.6-29.2,52.6c-0.2,9.9-0.4,21.1-2.4,34.7
		c-4.4,30.6,1.9,50.9,7.8,62.4H205c-3.4-5.2-22.6-37.2-6-64.8c5.7-9.4,5.2-17.1,3.9-21.8c-1.7-6.2-6.1-11.5-12.6-15.4
		c-20.5-12.3-56.8-7.7-71.3,16.5c-5.7,9.5-12.4,15.2-19.8,16.9c-6.3,1.5-12-0.2-15.3-1.6v-36c3.7,1.5,8.2,2.7,13.6,2.7
		c0.6,0,1.2,0,1.8,0c17-0.8,34.4-12.8,51.6-35.8c24.1-32.2,47.3-33.6,76.6-35.4c16.9-1,36-2.2,56.9-10c49.6-18.6,67.3-82.4,71.6-102
		h14.7V207.7z M175.8,435.3c-3.3-6.5-9.9-22-9.9-41c0-7.8-0.9-16.2-7.4-19.3c-7.3-3.5-14.6,2.5-23.7,10c-4.1,3.3-8.7,7.1-13.6,10.4
		c-12.8,8.5-29.4,5.9-37.2,3.9v-19.9c5,1.4,11.2,2.2,18.2,0.6c11.3-2.5,20.9-10.4,28.6-23.2c11.1-18.5,39.1-19.9,52.6-11.8
		c2.4,1.4,5.5,3.9,6.4,7.4c0.9,3.1,0.1,6.9-2.5,11.1c-16.6,27.7-5.5,57.5,2,71.8L175.8,435.3L175.8,435.3z M239,148.5
		c-3.2,8.4-9.8,23.1-20,32.3c-12.3,11.2-46.9,17.4-77.4,22.9c-6.3,1.1-12.6,2.3-18.5,3.4c-18.8,3.6-31.2,10.9-39.2,17.6v-22.4
		c11-1.1,34.3-5.1,49.6-20c16.4-15.9,25.5-29.9,27.9-33.8L239,148.5L239,148.5z M341.9,148.5c-5,20.4-21.7,73.9-62.4,89.2
		c-18.9,7.1-36.2,8.2-52.9,9.2c-30.2,1.9-58.7,3.6-86.7,40.9c-14.3,19.1-28.5,29.6-41,30.3c-7.6,0.4-12.7-2.8-15-4.6v-68.4
		c1.2-2.2,11.1-18.6,41.8-24.5c5.9-1.1,12.1-2.3,18.4-3.4c33.9-6.1,68.9-12.4,84.2-26.2c14.8-13.4,22.8-35,25.3-42.4H341.9z
		 M145,148.5c-4.3,6-11.2,14.6-20.9,24c-11.7,11.4-30.4,14.9-40.1,16v-40H145z M83.9,413.4c10.8,2.2,29.2,3.7,44.7-6.6
		c5.5-3.6,10.4-7.7,14.7-11.2c2.7-2.2,6.1-5,8.6-6.6c0.1,1.2,0.3,2.9,0.3,5.4c0,17.2,4.7,31.8,8.5,41H83.9L83.9,413.4z M338,340.1
		c-3.5-2.6-7.1-5.4-10.7-8.2c-16.5-12.9-32.1-25-45.7-20.9c-6.7,2.1-11.6,7.8-14.6,17c-9.6,29.7-16,60.3,1,83.1
		c7.2,9.6,12.8,18,16.7,24.1H251c-4.3-5.9-15.2-24.6-10.1-60.5c2.1-14.4,2.3-26.6,2.5-36.4c0.5-23.4,0.7-32.2,20.6-40.2
		c32.1-12.9,77,7.7,88.2,19c7.9,7.9,14.1,11.6,18.5,13.4V357C364.8,355.5,353.3,351.4,338,340.1L338,340.1z"/>
	<path class="st0" d="M215.5,219.7c0.1,3.3,1.8,7.7,9.9,9.9c3.1,0.9,6.8,1.3,10.9,1.3c20.7,0,51.5-10.5,61.3-27.8
		c8.6-15.3,10.9-27.3,6.6-35.6c-2-3.9-6.5-8.9-16.3-9.9c-21.4-2.3-26.7,3.8-33.6,26.1c-4.9,15.9-14.9,18.8-15.5,19
		c-0.1,0-0.3,0.1-0.4,0.1C215.4,210,215.5,217.1,215.5,219.7L215.5,219.7z M242.3,215.8c2.8-0.8,18.1-6,25-28.2
		c5.6-18,6.4-18,19.1-16.6c3,0.3,4.9,1.2,5.6,2.6c1.4,2.8,0.6,10.4-6.3,22.7c-6.8,12-31.5,20.4-47.7,20.9
		C239.5,216.8,240.9,216.3,242.3,215.8L242.3,215.8z"/>
	<circle class="st0" cx="118.1" cy="271.4" r="6.8"/>
	<circle class="st0" cx="200" cy="223.6" r="6.8"/>
	<circle class="st0" cx="193.1" cy="312.4" r="6.8"/>
	<circle class="st0" cx="213.6" cy="285.1" r="6.8"/>
	<circle class="st0" cx="336.5" cy="407.9" r="6.8"/>
	<circle class="st0" cx="302.4" cy="373.8" r="6.8"/>
	<circle class="st0" cx="179.5" cy="169" r="6.8"/>
</g>
</svg>
