<?xml version="1.0" encoding="utf-8"?>
<!-- Generator: Adobe Illustrator 25.2.0, SVG Export Plug-In . SVG Version: 6.00 Build 0)  -->
<svg version="1.1" id="Capa_1" xmlns="http://www.w3.org/2000/svg" xmlns:xlink="http://www.w3.org/1999/xlink" x="0px" y="0px"
	 viewBox="0 0 512 512" style="enable-background:new 0 0 512 512;" xml:space="preserve">
<style type="text/css">
	.st0{fill:#1C75B8;}
</style>
<g>
	<path class="st0" d="M477.4,22.4H34.6C15.5,22.4,0,38,0,57.1v294.7c0,19.1,15.5,34.6,34.6,34.6H94c4.1,0,7.5-3.4,7.5-7.5
		s-3.4-7.5-7.5-7.5H34.6c-10.8,0-19.6-8.8-19.6-19.6v-23.3c5.6,3.9,12.3,6.1,19.6,6.1h442.8c7.3,0,14-2.3,19.6-6.1v23.3
		c0,10.8-8.8,19.6-19.6,19.6H283c0,0,0,0-0.1,0h-53.9c0,0,0,0-0.1,0H124c-4.1,0-7.5,3.4-7.5,7.5s3.4,7.5,7.5,7.5h93.6L196,436.6
		h-13.6c-17.8,0-32.4,14.5-32.4,32.4v4.9c0,8.7,7.1,15.8,15.8,15.8h180.4c8.7,0,15.8-7.1,15.8-15.8v-4.9c0-17.8-14.5-32.4-32.4-32.4
		H316l-21.6-50.2h183c19.1,0,34.6-15.5,34.6-34.6V57.1C512,38,496.5,22.4,477.4,22.4L477.4,22.4z M347,468.9v4.9
		c0,0.4-0.3,0.8-0.8,0.8H165.8c-0.4,0-0.8-0.3-0.8-0.8v-4.9c0-9.6,7.8-17.4,17.4-17.4h18.5c0,0,0,0,0,0c0,0,0,0,0,0h110.2
		c0,0,0,0,0,0c0,0,0,0,0,0h18.5C339.2,451.6,347,459.4,347,468.9L347,468.9z M299.7,436.6h-87.4l21.6-50.2h44.2L299.7,436.6z
		 M477.4,319.6H34.6c-10.8,0-19.6-8.8-19.6-19.6V57.1c0-10.8,8.8-19.6,19.6-19.6h442.8c10.8,0,19.6,8.8,19.6,19.6V300
		C497,310.8,488.2,319.6,477.4,319.6z"/>
	<path class="st0" d="M237.6,96.6l10.9-6.2v26.4c0,4.1,3.4,7.5,7.5,7.5s7.5-3.4,7.5-7.5V90.4l10.9,6.2c1.2,0.7,2.4,1,3.7,1
		c2.6,0,5.1-1.4,6.5-3.8c2-3.6,0.8-8.2-2.8-10.2c-24.2-13.8-22.3-12.7-23.1-13c-2.1-0.8-4.5-0.6-6.4,0.4c0,0,0,0,0,0l-22.1,12.6
		c-3.6,2-4.9,6.6-2.8,10.2C229.4,97.4,234,98.7,237.6,96.6L237.6,96.6z"/>
	<path class="st0" d="M177.1,240.5l-22.8,13.1v-12.4c0-4.1-3.4-7.5-7.5-7.5s-7.5,3.4-7.5,7.5c0,26.7-1.1,29.2,3.8,32L165,286
		c1.2,0.7,2.5,1,3.8,1c2.6,0,5.1-1.3,6.5-3.7c2.1-3.6,0.9-8.2-2.7-10.3l-10.8-6.3l22.9-13.2c3.6-2.1,4.8-6.7,2.8-10.2
		C185.2,239.7,180.6,238.5,177.1,240.5L177.1,240.5z"/>
	<path class="st0" d="M365.3,233.7c-4.1,0-7.5,3.4-7.5,7.5v12.4l-22.8-13.1c-3.6-2.1-8.2-0.8-10.2,2.8s-0.8,8.2,2.8,10.2l22.9,13.2
		l-10.8,6.3c-3.6,2.1-4.8,6.7-2.7,10.3c1.4,2.4,3.9,3.7,6.5,3.7c1.3,0,2.6-0.3,3.8-1c20.4-12.2,24.3-12.7,25.5-17.5
		c0.5-1.9,0.1-1.8,0.2-27.3C372.8,237.1,369.4,233.7,365.3,233.7z"/>
	<path class="st0" d="M314.3,165.6l-54.6-31.5c-2.3-1.3-5.2-1.3-7.5,0l-54.6,31.5c-2.3,1.3-3.8,3.8-3.8,6.5c0,0.2,0,0.4,0,0.6v62.5
		c0,2.7,1.4,5.2,3.8,6.5l54,31.2c0.2,0.1,0.3,0.2,0.5,0.3c1.2,0.7,2.5,1,3.8,1c0,0,0,0,0,0c0,0,0,0,0,0c1.3,0,2.6-0.3,3.8-1
		c0.2-0.1,0.3-0.2,0.5-0.3l54-31.2c2.3-1.3,3.8-3.8,3.8-6.5v-62.5c0-0.2,0-0.4,0-0.6C318.1,169.4,316.7,167,314.3,165.6L314.3,165.6
		z M256,149.3l39.6,22.8L256,194.9l-39.6-22.8L256,149.3z M209,185.1l39.5,22.8v45.7L209,230.8V185.1z M263.5,253.6v-45.7l39.5-22.8
		v45.7L263.5,253.6z"/>
	<path class="st0" d="M83,65.7H48c-8,0-14.5,6.5-14.5,14.5v177.6c0,8,6.5,14.5,14.5,14.5h35c8,0,14.5-6.5,14.5-14.5V80.2
		C97.5,72.2,91,65.7,83,65.7z M82.5,257.3h-34V80.7h34V257.3z"/>
	<path class="st0" d="M62.7,117.7h5.7c4.1,0,7.5-3.4,7.5-7.5s-3.4-7.5-7.5-7.5h-5.7c-4.1,0-7.5,3.4-7.5,7.5S58.5,117.7,62.7,117.7z"
		/>
	<path class="st0" d="M62.7,156.9h5.7c4.1,0,7.5-3.4,7.5-7.5s-3.4-7.5-7.5-7.5h-5.7c-4.1,0-7.5,3.4-7.5,7.5S58.5,156.9,62.7,156.9z"
		/>
	<path class="st0" d="M62.7,196h5.7c4.1,0,7.5-3.4,7.5-7.5s-3.4-7.5-7.5-7.5h-5.7c-4.1,0-7.5,3.4-7.5,7.5S58.5,196,62.7,196z"/>
	<path class="st0" d="M62.7,235.2h5.7c4.1,0,7.5-3.4,7.5-7.5s-3.4-7.5-7.5-7.5h-5.7c-4.1,0-7.5,3.4-7.5,7.5S58.5,235.2,62.7,235.2z"
		/>
	<path class="st0" d="M466.5,56.1h-96.2c-6.9,0-12.5,5.6-12.5,12.5v81.5c0,6.9,5.6,12.5,12.5,12.5h96.2c6.9,0,12.5-5.6,12.5-12.5
		V68.6C479,61.7,473.4,56.1,466.5,56.1z M464,147.6h-91.2V71.1H464V147.6z"/>
	<path class="st0" d="M394.5,103.8h23c4.1,0,7.5-3.4,7.5-7.5s-3.4-7.5-7.5-7.5h-23c-4.1,0-7.5,3.4-7.5,7.5S390.3,103.8,394.5,103.8z
		"/>
	<path class="st0" d="M394.5,129.8h48c4.1,0,7.5-3.4,7.5-7.5s-3.4-7.5-7.5-7.5h-48c-4.1,0-7.5,3.4-7.5,7.5S390.3,129.8,394.5,129.8z
		"/>
</g>
</svg>
