<?xml version="1.0" encoding="utf-8"?>
<!-- Generator: Adobe Illustrator 25.2.0, SVG Export Plug-In . SVG Version: 6.00 Build 0)  -->
<svg version="1.1" id="Layer_1" xmlns="http://www.w3.org/2000/svg" xmlns:xlink="http://www.w3.org/1999/xlink" x="0px" y="0px"
	 viewBox="0 0 512 512" style="enable-background:new 0 0 512 512;" xml:space="preserve">
<style type="text/css">
	.st0{fill:#1C75B8;}
</style>
<g id="_x30_50---Interior-Design">
	<path id="Shape" class="st0" d="M281.7,51.2h17.1c4.7,0,8.5-3.8,8.5-8.5s-3.8-8.5-8.5-8.5h-17.1c-4.7,0-8.5,3.8-8.5,8.5
		S277,51.2,281.7,51.2z"/>
	<path id="Shape_1_" class="st0" d="M59.9,51.2h187.7c4.7,0,8.5-3.8,8.5-8.5s-3.8-8.5-8.5-8.5H59.9c-4.7,0-8.5,3.8-8.5,8.5
		S55.2,51.2,59.9,51.2z"/>
	<path id="Shape_2_" class="st0" d="M501.1,248.4c15.7-17.5,14.3-44.5-3.3-60.3c-17.5-15.7-44.5-14.3-60.3,3.3
		c-43,47.8-23.3,26-96.1,107V187.7h76.8c14.1,0,25.6-11.5,25.6-25.6V59.7c0-33-26.8-59.7-59.7-59.7H59.9C26.9,0,0.2,26.8,0.1,59.7
		v426.7c0,14.1,11.5,25.6,25.6,25.6h290.1c14.1,0,25.6-11.5,25.6-25.6v-60.2L501.1,248.4z M450.3,202.8c6.1-7,15.4-10.1,24.5-8.3
		c9.1,1.9,16.4,8.5,19.2,17.3c2.8,8.8,0.7,18.4-5.6,25.2l-28.5,31.8c-23.5-21.1-14.7-13.2-38.1-34.2L450.3,202.8z M426.8,59.7v102.4
		c0,4.7-3.8,8.5-8.5,8.5h-76.8V59.7c0-23.6,19.1-42.7,42.7-42.7C407.7,17.1,426.8,36.2,426.8,59.7z M315.9,494.9H25.7
		c-4.7,0-8.5-3.8-8.5-8.5V59.7c0-23.6,19.1-42.6,42.7-42.7h282.5c-11.5,11.2-18,26.6-18,42.7v257.7L290,355.7
		c-1.3-13-12.3-22.9-25.3-22.9v-128h25.1c5.6,0.1,10.9-2.5,14.2-7c3.3-4.5,4.2-10.3,2.4-15.6l-21.1-59.7c-2.5-7-9.2-11.6-16.6-11.5
		h-59.2c-7.4,0-14.1,4.6-16.6,11.5l-21.1,59.7c-1.8,5.3-0.9,11.1,2.4,15.6c3.3,4.5,8.6,7.1,14.2,7h25.1v128
		c-14.1,0-25.6,11.5-25.6,25.6v17.1h-25.6v-28c5.3-3,8.5-8.6,8.5-14.7v-15.2c6.7-6,9.8-15.1,8-23.9s-8.1-16.1-16.6-19v-52.8
		c0-18.9-15.3-34.1-34.1-34.1H85.5c-18.9,0-34.1,15.3-34.1,34.1v52.8c-8.5,3-14.8,10.2-16.6,19c-1.8,8.8,1.3,17.9,8,23.9v15.2
		c0,6.1,3.3,11.7,8.5,14.7v28c-4.7,0-8.5,3.8-8.5,8.5s3.8,8.5,8.5,8.5h214.1l-25,68.3H102.5c-4.7,0-8.5,3.8-8.5,8.5
		c0,4.7,3.8,8.5,8.5,8.5h145.1c3.3,0,6.3-1.9,7.7-4.9l69.1-34.1v47.6C324.4,491.1,320.6,494.9,315.9,494.9L315.9,494.9z
		 M314.3,424.8l-52,25.7l20-54.4L314.3,424.8z M188.4,187.7c-0.9,0.2-2.9,6.8,21.1-59.7l59.7,0.1l20.6,59.6H188.4z M230.5,204.8
		h17.1v128h-17.1V204.8z M264.7,349.9c4.7,0,8.5,3.8,8.5,8.5v16.1c-1.3,1.4,6.4,1-68.3,1v-17.1c0-4.7,3.8-8.5,8.5-8.5H264.7z
		 M153.7,290.1c4.7,0,8.5,3.8,8.5,8.5s-3.8,8.5-8.5,8.5c-4.7,0-8.5-3.8-8.5-8.5S149,290.1,153.7,290.1z M145.2,274.6
		c-7.2,2.6-12.9,8.3-15.5,15.5H83.9c-2.6-7.2-8.3-12.9-15.5-15.5v-52.8c0-9.4,7.6-17.1,17.1-17.1h42.7c9.4,0,17.1,7.6,17.1,17.1
		V274.6z M59.9,290.1c4.7,0,8.5,3.8,8.5,8.5s-3.8,8.5-8.5,8.5s-8.5-3.8-8.5-8.5S55.2,290.1,59.9,290.1z M83.9,307.2h45.8
		c3.6,10.2,13.2,17,24,17.1v8.5H59.9v-8.5C70.7,324.2,80.3,317.4,83.9,307.2z M68.4,349.9h15.2l-5.1,25.6H68.4V349.9z M101,349.9
		h11.6l5.1,25.6H95.9L101,349.9z M130,349.9h15.2v25.6h-10.1L130,349.9z M328.7,414.8l-38.1-34.2l119.7-133.3l38.1,34.2L328.7,414.8
		z"/>
	<path id="Shape_3_" class="st0" d="M76.9,460.8H51.3c-4.7,0-8.5,3.8-8.5,8.5c0,4.7,3.8,8.5,8.5,8.5h25.6c4.7,0,8.5-3.8,8.5-8.5
		C85.5,464.6,81.6,460.8,76.9,460.8z"/>
</g>
</svg>
