<?xml version="1.0" encoding="utf-8"?>
<!-- Generator: Adobe Illustrator 25.2.0, SVG Export Plug-In . SVG Version: 6.00 Build 0)  -->
<svg version="1.1" id="Layer_1" xmlns="http://www.w3.org/2000/svg" xmlns:xlink="http://www.w3.org/1999/xlink" x="0px" y="0px"
	 viewBox="0 0 512 512" style="enable-background:new 0 0 512 512;" xml:space="preserve">
<style type="text/css">
	.st0{fill:#1C75B8;}
</style>
<g id="Layer_2_1_">
	<path class="st0" d="M509.3,113.4c-1.7-1.3-4-1.8-6.1-1.2l-41.6,11.2c-134.7,36.1-276.4,36.1-411.1,0L8.8,112.2
		c-3.7-1-7.6,1.2-8.6,5C0.1,117.8,0,118.4,0,119v274c0.1,3.9,3.3,7,7.2,7c0.5,0,1.1-0.1,1.6-0.2l41.6-11.2
		c134.7-36.1,276.4-36.1,411.1,0l41.7,11.2c3.8,1,7.6-1.3,8.6-5.1c0.1-0.5,0.2-1.1,0.2-1.6V119C512,116.8,511,114.8,509.3,113.4z
		 M498,341l-163.1-52.4l55.9-25L498,305.1V341z M46.8,136.9c137,36.7,281.3,36.7,418.3,0l32.8-8.8v162l-104.8-40.7
		c-1.7-0.7-3.7-0.6-5.4,0.1L315,282.2l-120.8-38.9c-1.5-0.5-3.2-0.4-4.7,0.1L14,311.1v-183L46.8,136.9z M465.2,375.1
		c-137-36.7-281.3-36.7-418.3,0L14,383.9v-57.7l178.2-68.7L498,355.8v28.1L465.2,375.1z"/>
	<path class="st0" d="M150.7,99.1c0,0.6,0.1,1.2,0.3,1.8l5.6,17.1c1.2,3.7,5.2,5.7,8.8,4.5c3.7-1.2,5.7-5.2,4.5-8.8l0,0l-2.2-6.8
		c29.3,3.3,58.8,4.9,88.3,4.9c29.5,0,59-1.7,88.3-4.9l-2.2,6.8c-1.2,3.7,0.8,7.6,4.5,8.8c3.7,1.2,7.6-0.8,8.8-4.5l5.6-17.1
		c0.8-2.5,0.1-5.2-1.7-7.1l-14.8-15.2c-2.8-2.7-7.2-2.6-9.9,0.1c-2.6,2.7-2.6,6.9-0.1,9.7l4.7,4.8c-55.3,5.8-111.1,5.8-166.5,0
		l4.7-4.8c2.6-2.8,2.5-7.3-0.3-9.9c-2.7-2.5-7-2.5-9.7,0.1l-14.8,15.2C151.3,95.2,150.6,97.1,150.7,99.1L150.7,99.1z"/>
	<path class="st0" d="M361.3,412.9c0-0.6-0.1-1.2-0.3-1.8l-5.6-17.1c-1.2-3.7-5.2-5.7-8.8-4.5s-5.7,5.2-4.5,8.8l2.2,6.8
		c-58.7-6.5-117.9-6.5-176.6,0l2.2-6.8c1.2-3.7-0.8-7.6-4.5-8.8c-3.7-1.2-7.6,0.8-8.8,4.5l-5.6,17.1c-0.8,2.5-0.1,5.2,1.7,7.1
		l14.8,15.2c2.8,2.7,7.2,2.6,9.9-0.1c2.6-2.7,2.6-6.9,0.1-9.7l-4.7-4.8c55.3-5.8,111.1-5.8,166.5,0l-4.7,4.8
		c-2.6,2.8-2.5,7.3,0.3,9.9c2.7,2.5,7,2.5,9.7-0.1l14.8-15.2C360.7,416.8,361.4,414.9,361.3,412.9L361.3,412.9z"/>
	<path class="st0" d="M299,250.5c16.3,0,29.5-13.2,29.5-29.5s-13.2-29.5-29.5-29.5s-29.5,13.2-29.5,29.5l0,0
		C269.5,237.3,282.7,250.5,299,250.5z M299,205.5c8.6,0,15.5,6.9,15.5,15.5s-6.9,15.5-15.5,15.5s-15.5-6.9-15.5-15.5
		C283.5,212.4,290.4,205.5,299,205.5z"/>
</g>
</svg>
