<?xml version="1.0" encoding="utf-8"?>
<!-- Generator: Adobe Illustrator 25.2.0, SVG Export Plug-In . SVG Version: 6.00 Build 0)  -->
<svg version="1.1" id="Capa_1" xmlns="http://www.w3.org/2000/svg" xmlns:xlink="http://www.w3.org/1999/xlink" x="0px" y="0px"
	 viewBox="0 0 512 512" style="enable-background:new 0 0 512 512;" xml:space="preserve">
<style type="text/css">
	.st0{fill:#1C75B8;}
</style>
<g id="XMLID_1034_">
	<g id="XMLID_2047_">
		<path id="XMLID_2053_" class="st0" d="M511.9,256c0-3.7-2.1-7.1-5.4-8.9L410.1,197l96.4-50.2c3.3-1.7,5.4-5.1,5.4-8.9
			s-2.1-7.1-5.4-8.9l-83-43.2c-4.9-2.5-10.9-0.6-13.5,4.3c-2.5,4.9-0.6,10.9,4.3,13.5l66,34.3L256,254.6L31.8,137.9L256,21.3
			l78.4,40.8c4.9,2.5,10.9,0.6,13.5-4.3c2.5-4.9,0.6-10.9-4.3-13.5l-83-43.2c-2.9-1.5-6.3-1.5-9.2,0L5.5,129.1
			c-3.3,1.7-5.4,5.1-5.4,8.9s2.1,7.1,5.4,8.9l96.4,50.2L5.5,247.1c-3.3,1.7-5.4,5.1-5.4,8.9c0,3.7,2.1,7.1,5.4,8.9l96.4,50.2
			L5.5,365.2c-3.3,1.7-5.4,5.1-5.4,8.9c0,3.7,2.1,7.1,5.4,8.9l245.9,127.9c1.4,0.8,3,1.1,4.6,1.1c1.6,0,3.2-0.4,4.6-1.1l245.9-127.9
			c3.3-1.7,5.4-5.1,5.4-8.9c0-3.7-2.1-7.1-5.4-8.9L410.1,315l96.4-50.2C509.8,263.1,511.9,259.7,511.9,256L511.9,256z M260.6,274.7
			l127.8-66.5l29.8,15.5L194.4,340.6l-39.9-20.8l91.8-47.8l5.1,2.7c1.4,0.8,3,1.1,4.6,1.1C257.6,275.9,259.2,275.5,260.6,274.7z
			 M224.6,260.8l-91.8,47.8l-39.7-20.7l91.8-47.8L224.6,260.8z M123.6,208.2l39.7,20.7l-91.8,47.8L31.8,256L123.6,208.2z
			 M480.2,374.1L256,490.7L31.8,374.1l91.8-47.8l127.8,66.5c1.4,0.8,3,1.1,4.6,1.1c1.6,0,3.2-0.4,4.6-1.1l127.8-66.5L480.2,374.1z
			 M256,372.7l-40-20.8L439.9,235l40.4,21L256,372.7z"/>
		<path id="XMLID_2078_" class="st0" d="M378.9,84c2.6,0,5.2-1.1,7.1-2.9c1.9-1.9,2.9-4.4,2.9-7.1s-1.1-5.2-2.9-7.1
			c-1.9-1.9-4.4-2.9-7.1-2.9s-5.2,1.1-7.1,2.9c-1.9,1.9-2.9,4.4-2.9,7.1s1.1,5.2,2.9,7.1C373.7,82.9,376.3,84,378.9,84z"/>
	</g>
</g>
</svg>
