<?xml version="1.0" encoding="utf-8"?>
<!-- Generator: Adobe Illustrator 25.2.0, SVG Export Plug-In . SVG Version: 6.00 Build 0)  -->
<svg version="1.1" id="Layer_1" xmlns="http://www.w3.org/2000/svg" xmlns:xlink="http://www.w3.org/1999/xlink" x="0px" y="0px"
	 viewBox="0 0 512 512" style="enable-background:new 0 0 512 512;" xml:space="preserve">
<style type="text/css">
	.st0{fill:#1C75B8;}
</style>
<g id="outline">
	<path class="st0" d="M488,56H24c-4.4,0-8,3.6-8,8v360c0,4.4,3.6,8,8,8h273.5c4.3,12.4,17.9,19,30.4,14.7
		c6.9-2.4,12.3-7.8,14.7-14.7H488c4.4,0,8-3.6,8-8V64C496,59.6,492.4,56,488,56z M344,344v-5.7l31.4-50.3H440v56H344z M376,392.2
		c-6.9-5.3-15.3-8.2-24-8.2c-4.4,0-8-3.6-8-8v-16h32V392.2z M216,288c4.4,0,8-3.6,8-8s-3.6-8-8-8h-40c-8.8,0-16-7.2-16-16
		c0-8.8,7.2-16,16-16h40c4.4,0,8-3.6,8-8s-3.6-8-8-8c-8.8,0-16-7.2-16-16s7.2-16,16-16h89.4L280,232c0-4.4-3.6-8-8-8h-24
		c-4.4,0-8,3.6-8,8s3.6,8,8,8h24c1.2,0,2.3-0.3,3.4-0.8l-18.1,28.5c-0.8,1.3-1.3,2.8-1.2,4.3h-8c-4.4,0-8,3.6-8,8s3.6,8,8,8h16.6
		l10,16H216c-8.8,0-16-7.2-16-16H216z M32,200v-56h24v56H32z M72,144h112v56H72V144z M312,144v32h-96c-5.6,0-11.2,1.6-16,4.5V144
		H312z M440,144v56H339.7L328,181.7V144H440z M480,144v56h-24v-56H480z M480,272h-88v-56h88V272z M300.1,314.6L273.5,272l38.5-60.6
		v94C307.2,307.2,303,310.4,300.1,314.6z M376,257.1L349.8,216H376V257.1z M339.9,314.6c-2.9-4.3-7.1-7.5-11.9-9.2v-94l38.6,60.6
		L339.9,314.6z M312,328c0-4.4,3.6-8,8-8s8,3.6,8,8v40h-16V328z M456,288h24v56h-24V288z M480,128h-88V72h88V128z M376,128H264V72
		h112V128z M248,128H136V72h112V128z M32,72h88v56H32V72z M32,216h153c0.7,2.8,1.8,5.5,3.3,8H176c-17.7,0-32,14.3-32,32
		s14.3,32,32,32h8c0,17.7,14.3,32,32,32h68.6l11.4,18.3V416H32V216z M320,432c-4.4,0-8-3.6-8-8v-40h16v40
		C328,428.4,324.4,432,320,432z M344,416v-17.5c2.6,0.9,5.3,1.4,8,1.5c6.3,0,12.4,2.5,16.9,7c2.5,2.6,4.5,5.6,5.7,9H344z M480,416
		h-88v-56h88V416z"/>
</g>
</svg>
