<?xml version="1.0" encoding="utf-8"?>
<!-- Generator: Adobe Illustrator 25.2.0, SVG Export Plug-In . SVG Version: 6.00 Build 0)  -->
<svg version="1.1" id="Capa_1" xmlns="http://www.w3.org/2000/svg" xmlns:xlink="http://www.w3.org/1999/xlink" x="0px" y="0px"
	 viewBox="0 0 512 512" style="enable-background:new 0 0 512 512;" xml:space="preserve">
<style type="text/css">
	.st0{fill:#1C75B8;}
</style>
<g>
	<path class="st0" d="M36.3,47.3c4.1,0,7.5-3.4,7.5-7.5V17.5c0-1.4,1.1-2.5,2.5-2.5h280c1.4,0,2.5,1.1,2.5,2.5v81.6
		c0,4.1,3.4,7.5,7.5,7.5s7.5-3.4,7.5-7.5V17.5c0-9.6-7.8-17.5-17.5-17.5h-280c-9.6,0-17.5,7.8-17.5,17.5v22.3
		C28.8,43.9,32.2,47.3,36.3,47.3L36.3,47.3z"/>
	<path class="st0" d="M455.7,192.1h-5.2v-35.9c0-15.2-12.3-27.5-27.5-27.5H95.1c-15.2,0-27.5,12.3-27.5,27.5v26.6H46.3
		c-1.4,0-2.5-1.1-2.5-2.5V74.7c0-4.1-3.4-7.5-7.5-7.5s-7.5,3.4-7.5,7.5v105.7c0,9.6,7.8,17.5,17.5,17.5h21.3v45.1
		c0,15.2,12.3,27.5,27.5,27.5H423c15.2,0,27.5-12.3,27.5-27.5v-35.9h5.2c6.9,0,12.5,5.6,12.5,12.5v41.1c0,8.7-6.5,16.1-15,17.3
		l-173.7,24.6c-15.1,2.1-26.7,14.7-27.8,29.8h-21.7c-6.9,0-12.5,5.6-12.5,12.5v16.2c0,9.3,1.9,18.2,5.6,26.7
		c2.9,6.5,4.4,13.5,4.4,20.6v91.1c0,6.9,5.6,12.5,12.5,12.5h38.1c6.9,0,12.5-5.6,12.5-12.5v-16.8c0-4.1-3.4-7.5-7.5-7.5
		s-7.5,3.4-7.5,7.5V497h-33.1v-88.6c0-9.3-1.9-18.2-5.6-26.7c-2.9-6.5-4.4-13.5-4.4-20.6v-13.7h53.2v13.7c0,7.1-1.5,14.1-4.4,20.6
		c-3.7,8.5-5.6,17.4-5.6,26.7v37.7c0,4.1,3.4,7.5,7.5,7.5s7.5-3.4,7.5-7.5v-37.7c0-7.1,1.5-14.1,4.4-20.6c3.7-8.5,5.6-17.4,5.6-26.7
		v-16.2c0-6.9-5.6-12.5-12.5-12.5h-21.4c1.1-7.6,7.1-13.8,14.9-14.9l173.7-24.6c15.9-2.3,27.9-16.1,27.9-32.2v-41.1
		C483.2,204.4,470.8,192.1,455.7,192.1L455.7,192.1z M161.7,194.4c-1.4-0.7-2.9-1.1-4.4-1.1c-1.9,0-3.8,0.6-5.4,1.7
		c-3.3,2.3-7.1,3.5-11.1,3.5c-10.7,0-19.5-8.7-19.5-19.5v-35.2h270.9v35.2c0,10.7-8.7,19.5-19.5,19.5c-9.7,0-18-7.2-19.3-16.8
		c-0.4-2.9-2.2-5.5-4.8-7c-2.6-1.4-5.7-1.6-8.4-0.4c-2.5,1.1-5.1,1.6-7.8,1.6c-6.2,0-11.9-2.9-15.7-7.9c-1.8-2.4-4.6-3.8-7.6-3.8
		s-5.8,1.4-7.6,3.8c-3.7,5-9.4,7.9-15.7,7.9h-72.7c-4.1,0-7.5,3.4-7.5,7.5v22.9c0,10.7-8.7,19.5-19.5,19.5s-19.5-8.7-19.5-19.5v-3.4
		C166.8,199.3,164.9,196,161.7,194.4L161.7,194.4z M435.4,242.9c0,6.9-5.6,12.5-12.5,12.5H95.1c-6.9,0-12.5-5.6-12.5-12.5v-86.7
		c0-6.9,5.6-12.5,12.5-12.5h11.3V179c0,19,15.5,34.5,34.5,34.5c3.9,0,7.7-0.7,11.4-1.9c2.5,16.5,16.9,29.2,34.1,29.2
		c19,0,34.5-15.5,34.5-34.5v-15.4H286c8.6,0,17-3.3,23.3-9.1c6.3,5.8,14.6,9.1,23.3,9.1c2.6,0,5.1-0.3,7.6-0.8
		c4.7,13.7,17.7,23.4,32.7,23.4c19,0,34.5-15.5,34.5-34.5v-35.2H423c6.9,0,12.5,5.6,12.5,12.5L435.4,242.9L435.4,242.9z"/>
	<path class="st0" d="M135.4,282.8c-4.4,0-8.5,2.1-11,5.7c-18,25.4-18,34.4-18,37.3c0,16,13,29,29,29s29-13,29-29
		c0-2.9,0-11.9-18-37.3C143.9,285,139.8,282.8,135.4,282.8L135.4,282.8z M135.4,339.8c-7.7,0-14-6.3-14-14c0-3.1,3.7-12,14-26.9
		c10.3,14.8,14,23.7,14,26.9C149.4,333.6,143.1,339.8,135.4,339.8z"/>
</g>
</svg>
