<?xml version="1.0" encoding="utf-8"?>
<!-- Generator: Adobe Illustrator 25.2.0, SVG Export Plug-In . SVG Version: 6.00 Build 0)  -->
<svg version="1.1" id="Layer_1" xmlns="http://www.w3.org/2000/svg" xmlns:xlink="http://www.w3.org/1999/xlink" x="0px" y="0px"
	 viewBox="0 0 512 512" style="enable-background:new 0 0 512 512;" xml:space="preserve">
<style type="text/css">
	.st0{fill:#1C75B8;}
</style>
<g>
	<g>
		<path class="st0" d="M246.9,33c-0.8-4.3-4.9-7.2-9.3-6.4C208.1,32,190.8,49.8,176.9,64c-14.4,14.8-24,24.6-44.9,24.6
			C111,88.6,101.5,78.8,87,64C71,47.5,49,25,7.9,25C3.6,25,0,28.6,0,32.9v102.2c0,4.4,3.6,7.9,7.9,7.9s7.9-3.6,7.9-7.9V41.2
			c29.2,2.6,45.4,19.1,59.8,33.9c13.2,13.5,24.8,25.4,45.2,28.6v226.5c0,4.4,3.6,8,7.9,8s7.9-3.6,7.9-8V104.4
			c24.5-1.5,37.1-14.4,51.5-29.3c12.9-13.3,27.6-28.3,52.2-32.8C244.8,41.5,247.7,37.3,246.9,33z"/>
	</g>
</g>
<g>
	<g>
		<path class="st0" d="M504,25C463,25,441,47.5,425,64c-14.4,14.8-24,24.6-44.9,24.6c-21,0-30.5-9.8-44.9-24.6
			c-13.9-14.2-31.1-31.9-60.7-37.4c-4.3-0.8-8.5,2.1-9.3,6.4c-0.8,4.3,2.1,8.5,6.4,9.3c24.6,4.5,39.2,19.6,52.2,32.8
			c14.5,14.8,27.1,27.8,51.6,29.3V203c0,4.4,3.6,7.9,8,7.9s8-3.6,8-7.9v-99.3c20.4-3.2,32-15.1,45.2-28.6
			c14.4-14.7,30.5-31.3,59.8-33.9V376c-36,2.7-56.2,23.3-71.1,38.7l0,0c-11.6,11.9-20.1,20.6-33.8,23.5V245.4c0-4.4-3.6-7.9-8-7.9
			s-8,3.6-8,7.9v193.7c-17.7-1.4-26.9-10.8-40.2-24.4c-16-16.5-38-39-79.1-39s-63,22.5-79.1,39c-13.3,13.6-22.4,23-40.2,24.4v-66.5
			c0-4.4-3.6-8-7.9-8c-4.4,0-7.9,3.6-7.9,8v65.6c-13.7-2.9-22.2-11.6-33.8-23.5c-15-15.4-35.1-36-71.1-38.7V186
			c0-4.4-3.6-7.9-7.9-7.9s-8,3.6-8,7.9v229.4c0,4.4,3.6,8,7.9,8c20.9,0,30.5,9.8,44.9,24.6c16,16.5,38,39,79.1,39s63-22.5,79.1-39
			c14.4-14.8,24-24.6,44.9-24.6s30.5,9.8,44.9,24.6c16,16.5,38,39,79.1,39c41.1,0,63-22.5,79.1-39c14.4-14.8,24-24.6,44.9-24.6
			c4.4,0,8-3.6,8-8V32.9C512,28.6,508.4,25,504,25z M496.1,407.9L496.1,407.9c-22.4,2.4-34.5,14.8-48.4,29
			c-15.6,16-33.3,34.2-67.7,34.2s-52.1-18.2-67.7-34.2c-15.4-15.8-28.7-29.4-56.3-29.4c-27.7,0-40.9,13.6-56.3,29.4
			c-15.6,16-33.3,34.2-67.7,34.2c-34.4,0-52.1-18.2-67.7-34.2c-13.8-14.2-26-26.6-48.4-29v-16c29.2,2.6,45.4,19.1,59.8,33.9
			c15.4,15.8,28.7,29.4,56.3,29.4c27.7,0,40.9-13.6,56.3-29.4c15.6-16,33.3-34.2,67.7-34.2c34.4,0,52.1,18.2,67.7,34.2
			c15.4,15.8,28.7,29.4,56.3,29.4s40.9-13.6,56.3-29.4l0,0c14.4-14.7,30.5-31.3,59.8-33.9L496.1,407.9L496.1,407.9z"/>
	</g>
</g>
</svg>
