<?xml version="1.0" encoding="utf-8"?>
<!-- Generator: Adobe Illustrator 25.2.0, SVG Export Plug-In . SVG Version: 6.00 Build 0)  -->
<svg version="1.1" id="Outline" xmlns="http://www.w3.org/2000/svg" xmlns:xlink="http://www.w3.org/1999/xlink" x="0px" y="0px"
	 viewBox="0 0 512 512" style="enable-background:new 0 0 512 512;" xml:space="preserve">
<style type="text/css">
	.st0{fill:#1C75B8;}
</style>
<path class="st0" d="M32,488h448c4.4,0,8-3.6,8-8V256c0-4.4-3.6-8-8-8H264V32c0-4.4-3.6-8-8-8H32c-4.4,0-8,3.6-8,8v448
	C24,484.4,27.6,488,32,488z M248,343.6c-42.2-3.9-75.7-37.4-79.6-79.6H248V343.6z M248,359.7v24.1c-64.4-4.1-115.6-55.4-119.8-119.8
	h24.1C156.3,315.1,196.9,355.7,248,359.7z M264,264h79.6c-3.9,42.2-37.4,75.7-79.6,79.6V264z M168.4,248
	c3.9-42.2,37.4-75.7,79.6-79.6V248H168.4z M248,152.3c-51.1,4-91.7,44.6-95.7,95.7h-24.1c4.1-64.4,55.4-115.6,119.8-119.8V152.3z
	 M112.4,264c4.1,73.1,62.5,131.5,135.6,135.6V472h-96.4C147.5,412.1,99.9,364.5,40,360.4V264L112.4,264z M40,408.5
	c33.4,3.8,59.7,30.1,63.5,63.5H40V408.5z M119.6,472c-3.9-42.3-37.4-75.7-79.6-79.6v-16.1c51.1,4,91.7,44.6,95.7,95.7H119.6z
	 M376.3,472c4-51.1,44.6-91.7,95.7-95.7v16.1c-42.3,3.9-75.7,37.4-79.6,79.6H376.3z M408.5,472c3.8-33.4,30.1-59.7,63.5-63.5V472
	H408.5z M472,360.4c-59.9,4.1-107.5,51.7-111.6,111.6H264v-72.4c73.1-4.1,131.5-62.5,135.6-135.6H472L472,360.4z M383.8,264
	c-4.1,64.4-55.4,115.6-119.8,119.8v-24.1c51.1-4,91.7-44.6,95.7-95.7H383.8z M248,112.4c-73.1,4.1-131.5,62.5-135.6,135.6H40v-96.4
	C99.9,147.5,147.5,99.9,151.6,40H248L248,112.4z M135.7,40c-4,51.1-44.6,91.7-95.7,95.7v-16.1c42.3-3.9,75.7-37.4,79.6-79.6
	L135.7,40z M103.5,40C99.7,73.4,73.4,99.7,40,103.5V40H103.5z"/>
<path class="st0" d="M284.8,155.5l7.3,14.5c0.9,1.7,1.8,3.4,2.8,5.1l-14.5,46.5c-1.3,4.2,1,8.7,5.2,10c0.8,0.2,1.6,0.4,2.4,0.4
	s1.6-0.1,2.4-0.4l45.7-14.3l27.2,16.3c6.9,4.1,14.8,6.3,22.8,6.3h25.8c24.5,0,44.4-19.9,44.4-44.4c0-5.6-1.1-11.2-3.2-16.5
	l-4.5-11.1c8.6-21.9,8.1-46.4-1.6-67.9l46.5-46.5c3.1-3.1,3.1-8.2,0-11.3l-23.9-23.9c-3.1-3.1-8.2-3.1-11.3,0l-44.2,44.2
	c-9.7-6.2-20.5-10.3-31.9-12.3l-6.6-1.1c-4.7-0.8-9.5-1.2-14.3-1.2h-10.6c-41,0.2-74.1,33.6-73.9,74.7
	C277,134.1,279.7,145.3,284.8,155.5z M323.7,136.7c5.4-17.2,21.4-28.9,39.4-28.9c1.3,0,2.7,0.1,4.1,0.2c6.7,0.7,13.2,3,18.8,6.8
	l-15.5,15.5l11.3,11.3l15.5-15.5c3.8,5.6,6.2,12,6.8,18.8c1.9,19.4-10.1,37.6-28.7,43.5l-75.1,23.5L323.7,136.7z M433.7,162.1
	l-1.2,2.9c-0.8,1.9-0.8,4,0,5.9l5.6,14.1c5.8,14.5-1.2,31-15.8,36.9c-3.4,1.4-7,2-10.6,2h-25.8c-5.1,0-10.2-1.4-14.6-4l-15-9
	l23.6-7.4c25.9-8.2,42.6-33.3,39.9-60.4c-1.1-10.4-5-20.3-11.3-28.6l7.4-7.4l6.2,6.2c3.1,3.1,8.2,3.1,11.3,0l1.1-1.1
	C440.4,128.6,440,146.2,433.7,162.1L433.7,162.1z M464,35.3l12.6,12.6l-48.7,48.7L415.3,84L464,35.3z M306.4,84.9
	c11-13.2,27.3-20.9,44.5-20.9h10.6c3.9,0,7.8,0.3,11.6,1l6.6,1.1c8,1.4,15.8,4.1,22.9,8l-4.2,4.2c-3.1,3.1-3.1,8.2,0,11.3l6.3,6.3
	l-7.4,7.4c-25-19-60.8-14.2-79.8,10.8c-4.1,5.3-7.1,11.3-9.1,17.7l-6.7,21.5l-2.6-5.1c-2.4-4.7-4.1-9.8-5.1-14.9
	C290.6,116.2,295.1,98.3,306.4,84.9L306.4,84.9z"/>
</svg>
