<svg width="25px"  xmlns="http://www.w3.org/2000/svg" viewBox="0 0 511.97 511.97"><defs><style>.cls-1{fill:#fff;}</style></defs><g id="Layer_2" data-name="Layer 2"><g id="Capa_1" data-name="Capa 1"><path class="cls-1" d="M511.87,195.72a7.81,7.81,0,0,0-.35-1.73,9.35,9.35,0,0,0-.48-1.47,8,8,0,0,0-.86-1.31,8.38,8.38,0,0,0-1.13-1.32c-.14-.12-.2-.28-.34-.4l-82.07-63.73V59.7A25.6,25.6,0,0,0,401,34.1H308.56l-37-28.75a25.31,25.31,0,0,0-31.12,0l-37,28.75H110.91a25.6,25.6,0,0,0-25.6,25.6v66.06l-82,63.73c-.15.12-.21.28-.34.4a7.63,7.63,0,0,0-1.14,1.33,7.46,7.46,0,0,0-.85,1.3A8.45,8.45,0,0,0,.45,194,8.24,8.24,0,0,0,.1,195.7c0,.18-.1.33-.1.51V486.37a25.34,25.34,0,0,0,5,15.06c0,.07.06.17.12.24s.19.14.27.23A25.49,25.49,0,0,0,25.57,512h460.8a25.49,25.49,0,0,0,20.24-10.11c.07-.08.18-.11.24-.19s.06-.17.12-.24a25.33,25.33,0,0,0,5-15.06V196.23C512,196.05,511.88,195.9,511.87,195.72Zm-261-176.9a8.18,8.18,0,0,1,10.18,0L280.72,34.1H231.23ZM27.72,494.9,250.85,321.58a8.18,8.18,0,0,1,10.18,0L484.22,494.9Zm467.19-13.3L271.54,308.11a25.31,25.31,0,0,0-31.12,0L17,481.6V209.23L156.88,317.82a8.54,8.54,0,0,0,10.46-13.5L25.27,194l60-46.65V213.3a8.53,8.53,0,0,0,17.06,0V59.7a8.53,8.53,0,0,1,8.54-8.53H401a8.53,8.53,0,0,1,8.53,8.53V213.3a8.54,8.54,0,0,0,17.07,0V147.36l60,46.65L344.36,304.52A8.53,8.53,0,1,0,354.82,318L494.9,209.23V481.6Z"/><path class="cls-1" d="M358.37,204.77V170.63A102.4,102.4,0,1,0,256,273,8.53,8.53,0,1,0,256,256a85.34,85.34,0,1,1,85.34-85.34v34.14a17.07,17.07,0,0,1-34.14,0V170.63a8.53,8.53,0,0,0-17.06,0A34.14,34.14,0,1,1,256,136.5a8.54,8.54,0,1,0,0-17.07,51.2,51.2,0,1,0,34.5,88.93,34,34,0,0,0,67.9-3.59Z"/></g></g></svg>