<svg xmlns="http://www.w3.org/2000/svg"  width="25px" viewBox="0 0 512 512"><defs><style>.cls-1{fill:#fff;}</style></defs><g id="Layer_2" data-name="Layer 2"><g id="Capa_1" data-name="Capa 1"><path class="cls-1" d="M324.26,0a8.54,8.54,0,1,0,0,17.07c94.1,0,170.66,76.56,170.66,170.66a8.54,8.54,0,1,0,17.07,0C512,84.22,427.78,0,324.26,0Z"/><path class="cls-1" d="M324.26,51.2a8.54,8.54,0,1,0,0,17.07A119.6,119.6,0,0,1,443.72,187.73a8.54,8.54,0,1,0,17.07,0C460.79,112.45,399.55,51.2,324.26,51.2Z"/><path class="cls-1" d="M324.26,102.4a8.54,8.54,0,1,0,0,17.07,68.34,68.34,0,0,1,68.26,68.26,8.54,8.54,0,1,0,17.07,0A85.43,85.43,0,0,0,324.26,102.4Z"/><path class="cls-1" d="M461.76,320.21a311.33,311.33,0,0,1-68-16.92,58.58,58.58,0,0,0-61.54,13.13l-27,26.91A389.32,389.32,0,0,1,168,206.38l27-26.93a58.28,58.28,0,0,0,13.13-61.4,310.56,310.56,0,0,1-17-68A58.5,58.5,0,0,0,132.91,0H58.26c-1.74,0-3.49.09-5.21.24A58.22,58.22,0,0,0,.25,63.58a501.85,501.85,0,0,0,77.68,219,496.67,496.67,0,0,0,151.88,151.6,504.19,504.19,0,0,0,218.64,77.58c1.76.15,3.53.23,5.3.23h.16A58.32,58.32,0,0,0,512,453.59v-74.4A58.24,58.24,0,0,0,461.76,320.21Zm33.16,58.67v74.75a41.25,41.25,0,0,1-41.07,41.31c-1.33-.05-2.61-.05-3.73-.15a487,487,0,0,1-211.11-75A479.33,479.33,0,0,1,92.29,273.36,484.51,484.51,0,0,1,17.23,61.91,41.16,41.16,0,0,1,54.59,17.24c1.22-.11,2.44-.17,3.67-.17H133.4a41.29,41.29,0,0,1,40.82,35.3,327.64,327.64,0,0,0,17.9,71.68,41.2,41.2,0,0,1-9.24,43.36L151.27,199a8.51,8.51,0,0,0-1.39,10.26A406.36,406.36,0,0,0,302.39,361.42,8.54,8.54,0,0,0,312.63,360l31.57-31.51a41.49,41.49,0,0,1,43.54-9.25,328.64,328.64,0,0,0,71.71,17.85A41.16,41.16,0,0,1,494.92,378.88Z"/><path class="cls-1" d="M128,34.13H58.26c-.72,0-1.43,0-2.14.11A24.11,24.11,0,0,0,34.18,60a488.12,488.12,0,0,0,17.37,87.54,8.55,8.55,0,0,0,8.17,6.09,8.31,8.31,0,0,0,2.45-.36,8.52,8.52,0,0,0,5.74-10.61A469.25,469.25,0,0,1,51.17,58.31a6.79,6.79,0,0,1,1.65-4.56,7.52,7.52,0,0,1,5.44-2.55H128a8.54,8.54,0,0,0,0-17.07Z"/><path class="cls-1" d="M469.32,375.47a8.53,8.53,0,0,0-8.53,8.53v69.62a7.11,7.11,0,0,1-2.06,5.08,7,7,0,0,1-4.81,2.1l-.78,0a468.71,468.71,0,0,1-83.75-16.69,8.53,8.53,0,0,0-4.9,16.35,486.06,486.06,0,0,0,87,17.32c.7.07,2.12.11,2.33.11a24.17,24.17,0,0,0,24.08-24.28V384A8.54,8.54,0,0,0,469.32,375.47Z"/></g></g></svg>