<svg xmlns="http://www.w3.org/2000/svg"  width="25px" viewBox="0 0 475.55 475.52"><defs><style>.cls-1{fill:#fff;}</style></defs><g id="Layer_2" data-name="Layer 2"><g id="Layer_1-2" data-name="Layer 1"><path class="cls-1" d="M296.89,129.84A59.11,59.11,0,1,0,237.78,189,59.11,59.11,0,0,0,296.89,129.84Zm-104.22,0A45.11,45.11,0,1,1,237.78,175,45.1,45.1,0,0,1,192.67,129.84Z"/><path class="cls-1" d="M475.09,466,418,316.43a7,7,0,0,0-6.54-4.51h-108l2-3.2c41.56-68.8,62.47-129,62.17-178.85a129.86,129.86,0,0,0-259.71-.05c-.3,49.92,20.61,110.11,62.17,178.9.66,1.1,1.31,2.14,2,3.2h-108a7,7,0,0,0-6.54,4.51L.47,466a7,7,0,0,0,4,9,6.78,6.78,0,0,0,2.52.46H468.55a7,7,0,0,0,6.54-9.49ZM121.92,129.84a115.86,115.86,0,1,1,231.71,0h0c.6,99.43-92.36,222.06-115.85,251.47-23.5-29.39-116.46-152-115.86-251.51ZM232.45,397a7,7,0,0,0,9.86.8,6,6,0,0,0,.8-.8,741.81,741.81,0,0,0,51.6-71h112l9,23.5-218.77,77.8-78-101.32h62A740.93,740.93,0,0,0,232.45,397Zm-35.84,45.2h0l130.51-46.4,50.62,65.78H142.18ZM68.89,325.91h32.32L183,432.15l-82.57,29.37H17.17ZM395.46,461.53,341,390.8l79.6-28.31,37.77,99Z"/></g></g></svg>